<?xml version="1.0" standalone="no"?>
<!DOCTYPE svg PUBLIC "-//W3C//DTD SVG 1.1//EN" "http://www.w3.org/Graphics/SVG/1.1/DTD/svg11.dtd">
<svg xmlns="http://www.w3.org/2000/svg">
<metadata>Copyright (C) 2020 by original authors @ fontello.com</metadata>
<defs>
<font id="nextgicon" horiz-adv-x="1000" >
<font-face font-family="nextgicon" font-weight="400" font-stretch="normal" units-per-em="1000" ascent="850" descent="-150" />
<missing-glyph horiz-adv-x="1000" />
<glyph glyph-name="offload" unicode="&#xe800;" d="M834 160c0 53-27 100-72 125l0 331c0 39-32 70-70 70l-74 1 0 106c0 1 0 2 0 3v0c0 1 0 1-1 2 0 0 0 1 0 2 0 0 0 1 0 1 0 0 0 0 0 1 0 1 0 1-1 2 0 0 0 0 0 0-5 26-28 45-55 45h-121c-30 0-56-23-57-53 0-1 0-2 0-3l0-106-74 0c-39 0-70-31-70-70l0-65c-45-26-73-73-73-125 0-53 28-100 73-125l0-337c0-4 0-9 1-13l0-1c5-25 23-45 47-53 2-1 3-1 4-2v-10c0-20 17-36 38-35 19 1 34 17 34 36v7h23l226 0 25 0h0v-8c0-20 17-36 37-35 19 1 34 17 34 36v9c27 7 47 28 52 55 1 4 1 8 1 13l0 62 0 9c45 26 73 73 73 125z m-402 633l0 0c0 4 3 6 6 6 0 0 1 0 1 0l123 0c0 0 1 0 1 0 1 0 2 0 2-1 0 0 0 0 0 0 0 0 1 0 1 0 0 0 0 0 0 0 2-1 3-3 3-5l0-24 0-82-138 0 1 106z m-158-330c-17-13-30-32-34-53 0-1 0-2 0-3l-1-9c0-1 0-2 0-3 0-1 0-1 0-2v-15c-10 14-16 31-16 49 0 28 15 55 38 71 5 3 11 6 17 9 3 1 6 2 8 3 8 2 16 3 23 3h112v0h59v18l1-2 33-33-33-33-1-2v18l-59 0h-97c-18 0-35-6-50-16z m430-495c-11 0-22 0-32 0-10 0-20 0-28 0h0c-5 0-9-1-13-2-10-2-17-7-22-15l-219 1c-7 10-18 15-31 16-1 0-3 0-4 0-5 0-10 0-15 0h-44l0 430c3 14 15 24 28 24h102v-25c0-12 7-22 18-27 3-1 7-2 11-2 7 0 14 3 20 8l99 99c11 12 11 30 0 41l-99 99c-6 6-13 8-20 8-4 0-8 0-11-2-11-4-18-15-18-26v-25h-117c-4 0-8 0-13-1l0 48c0 6 6 12 13 12l382 0c7 0 13-6 13-13l0-426c-2-14-14-25-29-25h-101v25c0 12-7 23-18 27-3 1-7 2-11 2-7 0-15-3-20-8l-99-99c-6-6-9-13-9-21 0-7 3-14 9-20l99-99c5-5 13-8 20-8 4 0 8 0 11 2 11 4 18 15 18 26v25h116c5 0 9 0 13 1v-21l0-5 1-24z m36 122c-6-4-11-7-17-9-3-2-6-3-9-3-8-3-15-4-23-4h-169v-17l-2 1c0 0 0 0 0 0l-33 33 33 33c0 0 0 0 0 0l2 2v-18h154c18 0 35 6 50 16 21 16 34 39 36 65 0 1 0 3 0 5v15c10-14 15-31 15-48 0-29-14-55-37-71z m-395-86c-11 1-19 11-19 22v241c0 39 31 70 70 70h209c38 0 70-31 70-70v-53c0-11-9-20-19-21-13-1-23 8-23 21v53c0 15-13 28-28 28h-209c-15 0-28-13-28-28v-242c0-12-11-22-23-21z" horiz-adv-x="1000" />

<glyph glyph-name="make-up-area" unicode="&#xe801;" d="M863 346l0 0c0 0 0-1 0-2 0 1 0 2 0 2z m-232-11c1 1 2 3 3 5-1-2-2-4-3-5z m20-184c0-1 0-1 0-1l0 1 0 0z m212 193c0 1 0 2 0 2h0c0 0 0-1 0-2z m-229-4c-1-2-2-4-3-5 1 1 2 3 3 5z m8-107c1-3 1-7 1-10h1l-2 10z m-261 80v-8c0-1 1-3 3-3 1 0 3 2 3 3v10c-2 0-4-1-6-2z m454-23c0-1-1-2-3-2-1 0-2 1-2 3 0 1 1 2 2 2 2 0 3-1 3-3z m-1-27c0-1-1-2-2-2-1 0-2 1-2 2 0 2 1 2 2 2 1 0 2-1 2-2z m0-23c0-1-1-2-2-2-1 0-2 1-2 2 0 2 1 3 2 3 1 0 2-1 2-3z m-168 50c0-1-1-2-2-2-2 0-3 1-3 3 0 1 1 2 3 2 1 0 2-1 2-3z m0-27c0-1-1-2-3-2-1 0-2 1-2 2 0 2 1 2 3 2 1 0 2-1 2-2z m-1-23c0-1-1-2-2-2-1 0-2 1-2 2 0 2 1 3 2 3 1 0 2-1 2-3z m326-100h-96c4 5 7 11 7 18l2 166 0 11c1 14-11 26-25 26l-14 1-18 0-43 0c0 12-8 22-19 26-3 1-5 1-8 1l-51 1c-5 0-10-1-14-4 0 0 0 0 0 0-1 0-1-1-2-1-7-5-12-13-12-22l-45 1-30 0c-14 0-26-11-26-25l0-12 0-14c-9 3-18 6-27 6h-34l-2 4c-2 9-14 16-25 16h-36c-11 0-22-6-25-15l-1 119c0 0 1 0 2 0 5 0 8 4 8 8l-1 19c0 4-3 8-7 8l-3 0 0 37c0 17-14 30-31 30l-47-1-1 65c0 12-8 21-19 24 0 2-2 3-4 3l-65-1c-2 0-4-1-4-3h0c-11-3-19-13-19-24l1-65-47 0c-17-1-30-14-30-31l1-122h0c-13-9-22-28-22-49 0-22 10-40 23-49l2-130c0-2 0-4 1-6 1-6 4-12 9-16h-66c1 34 1 101 1 167 0 49 0 96 0 132 0 54 0 67-5 72-10 23-61 150-92 230-3 8-13 12-21 9-8-4-12-13-9-21 63-157 84-213 95-232 1-22 0-215 0-357h-24c-4 0-8-3-8-8v-24c0-4 4-8 8-8h68l1-14c-27-10-46-36-46-66 0-39 32-71 71-71 39 0 71 32 71 71 0 30-19 56-46 66h0l1 14h685l1-14c-26-10-46-36-46-66 0-39 32-71 71-71 39 0 71 32 71 71 0 30-19 56-46 66h0l1 14h61c4 0 8 4 8 8v24c0 5-3 8-8 8z m-820 201c0 14 4 26 11 34h0l0-68c-7 8-11 21-11 34z m-4-314c4 0 7-3 7-7 0-4-3-7-7-7-4 0-7 3-7 7 0 4 3 7 7 7z m47-7c0-26-21-47-47-47-26 0-47 21-47 47 0 17 10 33 24 41h0l5-50c0-9 8-16 17-16h4c9 0 16 7 17 16l3 49c15-8 24-23 24-40z m690 7c4 0 7-3 7-7 0-4-3-7-7-7-4 0-7 3-7 7 0 4 3 7 7 7z m-41 319c0 0 0-1 0-2 0 1 0 2 0 2l0 0z m-37 0l14 0-1-26-14 0 1 26z m6-46c2 0 3 2 3 3l0 7 4 0h1l-1-28h0l-14 0-1 0 0 28 1 0 4 0 0-7c0-1 1-3 3-3z m-1 3l0 7 0 4 0 2c0 0 0 0 0 0 0 0 0 0 0 0 0 0 1 1 1 1h0c0 0 1-1 1-1 0 0 0 0 0 0l0-2 0-4 0-7c0 0 0-1-1-1-1 0-1 1-1 1z m-106 77l52 0c2 0 4-1 6-2 6-2 11-8 11-16l-87 1c1 10 9 17 18 17z m-68-32l14 0-1-28-13 0 0 28z m6-48c2 0 3 2 3 3l0 7 4 0h1l-1-28h0l-14 0-1 0 1 28 1 0 3 0 0-7c0-1 2-3 3-3z m-1 3l0 7 0 4 0 2c0 0 0 0 0 0 0 0 1 0 1 0 0 0 0 1 0 1h0c1 0 1-1 1-1 0 0 0 0 0 0l0-2 0-4 0-7c0 0 0-1-1-1 0 0-1 1-1 1z m-28 37c-1-2-2-4-3-5 1 1 2 3 3 5z m-176-20c1 4 8 9 15 9h36c7 0 14-5 15-9l0-1h-66l0 1z m112-21c10 0 19-3 27-8 6-4 11-9 15-15 5-7 8-15 8-23l1-6c0-1 0-3 0-4h-265c1 4 1 7 1 10 3 25 25 46 51 46h162z m-295 321l0 0c1-1 2-1 4-1l66 1c1 0 2 0 3 1 5-2 8-6 8-12l1-64-3 0-82-1-4 0 0 64c-1 6 3 10 7 12z m60-386l0-3 0-2c-3-34-6-63-8-79l-73-1c-3 5-7 8-15 8h0v4c0 2-2 3-3 3s-3-1-3-3v-4c-10 0-21 0-33 0l-2 135 0 15 0 69-1 14-1 123c0 7 6 14 14 14l23 0v-9c0-1 1-3 3-3s3 2 3 3v9l18 0 6 1 9 0 82 1 14 0 13 0v-11c0-1 1-3 3-3 1 0 3 2 3 3v11l28 0c8 0 15-6 15-14l0-72 2-124h-25c-7 0-14-1-20-4v-10c0-1-2-3-3-3-2 0-3 2-3 3v8c-24-10-41-32-44-58 0-7-1-14-2-21z m11-91c0 2 1 4 1 7 0 4 1 9 1 14 2 16 4 37 6 59h269c2-21 4-41 6-57 0-1 0-1 0-2 1-9 2-16 2-21h-285z m305 8v-1c0 0 0 0 0 1-2 15-5 42-8 72 0 3 0 7-1 10l0 1c0 0 0 1 0 2 0 4-1 8-1 13l-1 6c-2 20-12 37-27 49l0 21c6 0 12 3 16 8 0 0 1 0 1 1 0 0 1 0 1 1 1 1 2 3 3 4 1 2 2 3 2 5 0 1 1 2 1 3 0 0 0 1 0 1l16 0 0-28c-2 0-4-1-5-2-1-2-2-4-2-6l-1-31c0-3 1-5 3-6 1-2 2-2 4-3l-1-121z m17-1l-13 1 1 121 14 0-2-122z m-12 126l-2 0h-1c0 0 0 0-1 0 0 0-1 1-2 1-1 1-1 2-1 4l0 31c0 1 1 2 2 3 0 1 1 1 2 1 0 0 1 0 1 0l3 0 4 0c0 0 0 0 0 0l0-2-6 0c-2 0-3-1-3-3l-1-29c0-2 2-3 4-3l16-1c2 0 3 2 3 3l1 30c0 1-2 3-3 3l-6 0 0 2c0 0 0 0 0 0l4 0 2 0h1c0 0 1 0 1 0 1 0 1-1 2-1 1-1 1-2 1-3l0-32c0-1-1-2-1-3-1 0-2-1-2-1-1 0-1 0-1 0l-3 0-14 0z m164-127l-148 1 2 122c1 0 3 1 4 2 2 2 3 4 3 6l0 31c0 3 0 5-2 6-1 2-3 3-5 3l1 27 147-1 0-26c-2 0-4-1-5-2-2-2-3-4-3-6l0-32c0-2 1-4 2-6 2-1 3-2 5-2l-1-123z m17 0l-14 0 2 123 14 0-2-123z m-12 127l-2 0h-1c0 0-1 0-1 0-1 0-1 1-2 1-1 1-1 2-1 4l0 31c0 1 1 2 2 3 0 1 1 1 2 1 0 0 1 0 1 0l3 0 3 0c0 0 0 0 0 0l0-2-5 0c-2 0-3-1-3-3l-1-29c0-2 2-3 3-3l17-1c2 0 3 2 3 3l1 30c0 1-2 3-3 3l-6 0 0 2c0 0 0 0 0 0l4 0 2 0h1c0 0 1 0 1 0 1 0 1-1 2-1 1-1 1-2 1-3l0-32c0-1-1-2-1-3-1 0-2-1-2-1-1 0-1 0-2 0l-2 0-14 0z m53-104c0-1-1-1-1-1-1 0-1 0-2-1 0 0-1 0-2-1 0 0 0 0 0 0-1-1-1-1-2-1-1-2-3-3-4-5 0 0-1 0-1-1-1 0-1-1-1-2 0 0-1 0-1-1 0 0 0 0 0-1-1 0-1-1-1-1 0-1 0-1-1-1 0 0 0 0 0 0 0-1 0-1 0-1 0-1 0-1 0-1 0-1-1-1-1-1 0 0 0 0 0-1 0-1 0-2 0-3h0l-20 0 2 123c1 1 3 1 4 3 2 1 3 3 3 6l0 31c0 2-1 4-2 6-1 1-3 2-5 2l1 26 19 0h0c0 0 0-1 1-2 1-6 4-11 8-15 1 0 1-1 2-1 0-1 1-2 2-2 1-1 2-1 3-2 0 0 0 0 0 0 1 0 1-1 2-1 2-1 5-1 7-1l-1-148c0 0 0 0 0 0-1 0-1 0-2-1 0 0 0 0 0 0 0 0 0 0-1 0-1 0-1 0-2 0-1 0-1 0-2 0-1-1-1-1-2-1z m73-152c0-26-21-47-47-47-26 0-47 21-47 47 0 17 10 33 24 41h0l5-50c1-9 9-16 17-16h4c9 0 17 7 17 16l4 49c14-8 23-23 23-40z m-715 162c-2 0-3 2-3 3v24c0 2 1 3 3 3s3-1 3-3v-24c0-1-2-3-3-3z m0 48c-2 0-3 1-3 3v23c0 2 1 3 3 3s3-1 3-3v-23c0-2-2-3-3-3z m0 47c-2 0-3 2-3 3v24c0 2 1 3 3 3s3-1 3-3v-24c0-1-2-3-3-3z m0 48c-2 0-3 1-3 3v24c0 1 1 3 3 3s3-2 3-3v-24c0-2-2-3-3-3z m0 48c-2 0-3 1-3 2v24c0 2 1 3 3 3s3-1 3-3v-24c0-1-2-2-3-2z m0 47c-2 0-3 2-3 3v24c0 1 1 3 3 3s3-2 3-3v-24c0-1-2-3-3-3z m0 48c-2 0-3 1-3 3v24c0 1 1 3 3 3s3-2 3-3v-24c0-2-2-3-3-3z m148-131c-2 0-3 1-3 3v22c0 2 1 3 3 3s3-1 3-3v-22c0-2-1-3-3-3z m0 44c-2 0-3 2-3 3v23c0 1 1 3 3 3s3-2 3-3v-23c0-1-1-3-3-3z m0 45c-2 0-3 1-3 3v22c0 2 1 3 3 3s3-1 3-3v-22c0-2-1-3-3-3z m0 45c-2 0-3 1-3 3v22c0 2 1 3 3 3s3-1 3-3v-22c0-2-1-3-3-3z m3-154v-11c0-2-2-3-3-3-2 0-3 1-3 3v11c0 2 1 3 3 3 2 0 3-1 3-3z" horiz-adv-x="1000" />

<glyph glyph-name="cabin-area" unicode="&#xe802;" d="M927-99l-12 72-31 177c-4 27-24 49-50 57l-191 58c-8 2-17 1-24-3-8 7-12 16-12 26v48l0 0c0 0 1 0 1 1 1 1 2 1 3 2h19c51 0 93 41 93 93 0 1 0 2 0 3l0 0c0 1 0 2 0 3l-6 82v1c0 1 0 1 0 2 0 1 0 3 0 4 0 0-6 89-6 89-3 26-8 50-15 75 0 0-2 4-2 4-12 24-30 43-51 58v0l10 26c7 19-3 40-21 47-2 1-4 1-6 2l-84 17c-14 3-28 4-42 4-13 0-26-2-39-4l-83-17c-11-3-20-9-25-18-5-10-6-21-2-31l9-24c-41-26-67-70-70-119l-7-109c0-2 0-4 0-6v-1l-5-82c-4-52 35-96 87-99 1 0 4 0 6 0h18c1-1 2-2 3-2 0-1 1-1 1-2v-47c0-10-4-19-11-26-8 4-17 5-25 2l-191-57c-26-8-46-30-50-57l-15-83-1-10-15-84-12-72c-4-23 12-46 35-50 2 0 5 0 7 0h769c2 0 4 0 6 0 9 1 19 6 25 13 1 1 1 1 2 2 2 3 5 6 6 10 2 3 3 7 3 10 2 5 2 10 1 15z m-234 535c0-1 0-1 0-2 1-17-5-33-17-46-1 0-1-1-2-2-9-9-22-15-35-17l0 0c19 22 31 48 36 76 2 0 5 0 7 1l0 0c1 0 2 0 3 1l2 0c2 1 3 2 5 2l1-13z m-314 360c1 2 3 3 5 4l83 17c11 2 22 3 33 3h2c12 0 23-1 35-3l83-17c2-1 4-2 5-4 1-2 1-4 0-6l-21-55c-3-8-10-13-19-13h-166c-9 0-16 5-19 13l-21 55c-1 2-1 4 0 6l0 0z m-59-161c2 37 21 71 52 92l1-2c7-20 25-33 46-33h167c20 1 39 13 46 33v0l0 0c16-11 29-26 37-44 6-22 11-44 13-66l0 0 3-52c-4 2-8 2-12 2h0c-5 7-12 11-20 12l-6 0c-38 4-75 11-112 22-7 2-15 5-21 8-5 2-10 4-14 6-28 13-53 32-74 56-6 6-17 7-32 1-41-17-69-56-70-101v-4c-3 0-6-1-9-1l5 71z m4-247c-12 13-18 31-17 48l1 13c5-2 11-4 17-4 5-28 17-54 36-76-14 2-27 9-37 19l0 0z m29 72c-1 8-7 14-15 14h-11c-8 0-15 7-15 15 0 0 0 0 0 0v32c0 1 0 2 0 2 0 1 0 1 0 1 2 7 8 12 15 12h11c8 0 15 6 15 15 0 0 0 0 0 0v18c1 34 23 65 56 76 25-28 56-49 91-64 47-18 97-29 148-33h0c1-7 7-12 14-12h11c8 0 14-5 15-12 0 0 0 0 0 0 0-1 0-2 0-2v-33c0-8-6-15-15-15l0 0h-11c-8 0-14-6-14-14 0-1 0-1 0-1 0-1 0-2 0-2-2-20-9-39-20-55-1-1-2-2-3-3-1-2-2-4-4-6l0 0c-2-3-5-7-7-10-4-4 0 0 0 0-6-6-12-12-18-18-2-2-4-4-6-6l-3-2c-22-24-54-37-87-37-33 1-66 14-89 39-32 25-53 61-58 101l0 0z m58-243l-12 22c15 13 23 30 23 49v26c23-15 50-23 78-23h0c1 0 2 0 3 0 27 1 52 8 74 23v-26c0-19 9-36 23-49l-11-22-178 0z m164-29l-59-116-2-4c0 0 0-1 0-1 0 0 0 0-1 0 0 0 0-1 0-1-1-1-2-2-3-2 0-1 0-1 0-1-3-2-6-3-10-3h0c-6 0-11 3-14 9l-60 119 149 0z m320-303c-3-3-6-5-11-5h-90l-23 140c-1 6-7 12-13 12-1 0-2 0-3 0 0 0-1 0-1 0-8-1-14-9-12-16 0-1 0-1 0-1l23-135h-530l23 135c2 8-3 16-11 17-8 1-16-4-17-12l-24-140h-91c-7 0-13 7-13 14 0 1 0 2 0 2l13 73 2 16 0 0 11 65c0 1 1 2 1 2l16 94c2 16 14 29 29 34l191 57c2 1 3 0 4-1l91-180c2-5 5-9 9-13 8-8 19-12 31-12h0c17 0 32 10 40 25l91 180c1 1 1 2 3 2 0 0 0 0 0-1l191-57c16-5 28-18 30-34l43-250c0-4-1-8-3-11l0 0z m-385 838l9 5 1 47 23 14c4 2 5 7 3 10-3 4-7 5-11 3l-23-14-42 21-8-5 31-28-24-14-11 5-7-4 14-13 4-17 7 4 1 12 23 14 10-40z" horiz-adv-x="1000" />

<glyph glyph-name="logout" unicode="&#xe803;" d="M396-136h-191c-84 0-152 68-152 152v668c0 84 68 152 152 152h191c31 0 56-25 56-56s-25-56-56-56h-191c-22 0-40-18-40-40v-668c0-22 18-39 40-39h191c31 0 56-25 56-57s-25-56-56-56z m551 486c0-1 0-2 0-3 0-1-1-2-1-3 0 0 0-1 0-2 0-1 0-1 0-2 0 0 0 0 0-1-1 0-1-1-1-2 0 0 0 0 0 0 0-1 0-2-1-2 0-1 0-1 0-1 0-1-1-2-1-3 0 0 0-1 0-1-1-1-1-1-1-1 0-1 0-1 0-2-1 0-1-1-1-1 0 0 0 0 0 0-1-1-1-2-1-2-1-1-1-2-2-3 0-1-1-1-1-2-1-1-1-2-2-3 0 0-1-1-1-1-1-1-1-2-2-2-1-1-1-2-2-2l-239-239c-10-11-25-17-39-17-14 0-29 6-40 17-22 22-22 57 0 79l143 143h-437c-31 0-56 25-56 56 0 31 25 56 56 56h437l-143 143c-22 22-22 57 0 79 22 22 58 22 79 0l239-238c1-1 1-2 2-2s1-2 2-2c0-1 0-1 1-2 1-1 1-2 2-3 0 0 1-1 1-1 1-1 1-2 2-3 0-1 0-2 1-2 0-1 0-1 0-1 0 0 0-1 0-1 1 0 1-1 1-1 0-1 0-1 0-1 1-1 1-1 1-2 0 0 0-1 0-1 1-1 1-1 1-2 0 0 0 0 0-1 1 0 1-1 1-1 0 0 0-1 0-1 0 0 0-1 1-2 0 0 0-1 0-1 0-1 0-1 0-2 0-1 0-1 0-2 0-1 1-2 1-3 0-1 0-2 0-3z" horiz-adv-x="1000" />

<glyph glyph-name="break-down-area" unicode="&#xe804;" d="M368-45c-35 0-64 29-64 65 0 35 29 64 64 64 36 0 65-29 65-64 0-36-29-65-65-65z m0 108c-23 0-43-20-43-43 0-24 20-44 43-44 24 0 44 20 44 44 0 24-20 43-44 43z m523-108c-35 0-64 29-64 65 0 35 29 64 64 64 36 0 65-29 65-64 0-36-29-65-65-65z m0 108c-24 0-43-20-43-43 0-24 19-44 43-44 24 0 43 20 43 44 0 24-19 43-43 43z m-784-108c-35 0-64 29-64 65 0 35 29 64 64 64 36 0 65-29 65-64 0-36-29-65-65-65z m0 108c-24 0-43-20-43-43 0-24 19-44 43-44 24 0 43 20 43 44 0 24-19 43-43 43z m523-108c-36 0-65 29-65 65 0 35 29 64 65 64 35 0 64-29 64-64 0-36-29-65-64-65z m0 108c-24 0-44-20-44-43 0-24 20-44 44-44 24 0 43 20 43 44 0 24-19 43-43 43z m-87 314c1 1 2 3 3 4-1-1-2-3-3-4z m309 13l0 0c0-1 0-1 0-2 0 1 0 1 0 2z m0-2c0 1 0 2 0 2h0c0-1 0-1 0-2z m-306-7c-1-1-2-3-3-4 1 1 2 3 3 4z m269-65c0-2-2-3-4-3-2 0-3 1-3 3 0 2 1 3 3 3 2 0 4-1 4-3z m-1-37c0-1-1-3-3-3-2 0-3 2-3 3 0 2 1 3 3 3 2 0 3-1 3-3z m0-30c0-1-2-3-3-3-2 0-4 2-4 3 0 2 2 4 4 4 1-1 3-2 3-4z m-225 67c0-2-1-3-3-3-2 0-3 1-3 3 0 2 1 3 3 3 2 0 3-1 3-3z m0-37c0-1-2-3-4-3-1 0-3 2-3 3 0 2 2 3 4 3 1 0 3-1 3-3z m-1-30c0-1-1-3-3-3-2 0-3 2-3 3 0 2 2 4 3 4 2-1 3-2 3-4z m314-133h-6c5 6 8 14 8 23l3 222 0 15c0 19-15 34-34 35l-18 0-24 0-58 1c0 16-11 29-25 34-4 1-7 2-11 2l-68 0c-7 0-13-1-18-4-1 0-1 0-1-1-1 0-2 0-2-1-10-6-16-17-17-29l-59 1-41 0c-18 1-34-15-34-33l0-17-3-203 0-18c0-11 5-20 13-27h-46c8 7 13 15 15 25 1 3 1 5 1 8l-1 44c0 0 0 0 0 0l0 36 0 10-3 281c0 0 2 0 4 0 5 0 9 5 9 10l0 26c0 6-4 10-10 10l-4 0 0 50c0 22-19 40-41 40l-63-1-1 86c0 16-11 29-25 32-1 3-3 5-5 4l-88-1c-3 0-5-2-5-4h0c-15-4-25-17-25-32l1-86-63-1c-22 0-40-19-40-41l2-163h0c-18-12-29-37-29-66 0-28 13-53 31-65l2-173c0-3 0-5 0-8 2-8 6-15 12-21h-37c-54 0-97-43-97-96 0-54 44-97 97-97h804c54 0 97 43 97 97 0 53-43 96-97 96z m-797 267c-1 19 5 36 14 46h0l1-91c-9 11-15 27-15 45z m747 7c0-1 0-1 0-2 0 1 0 1 0 2l0 0z m-26 0l26 0h0c0-1 0-2 0-2 2-8 6-16 12-21 1-1 1-1 2-2 1-1 2-1 4-2 1-1 2-1 3-2 0 0 0 0 0 0 1-1 2-1 3-1 3-2 6-2 9-3l-1-197c0 0-1 0-1 0 0 0-1 0-2 0 0 0 0 0 0 0 0 0 0 0-1 0-1 0-2 0-3-1-1 0-2 0-2 0-1-1-2-1-3-1 0-1-1-1-1-1-1 0-2-1-2-1-1-1-2-1-3-2 0 0-1 0-1 0-1-1-1-1-2-2-2-2-4-4-6-6 0 0-1 0-1-1 0-1-1-2-2-3 0 0 0 0 0-1-1 0-1-1-1-1-1-1-1-2-1-2-1-1-1-1-1-2 0 0 0 0 0 0 0 0 0-1-1-1 0-1 0-1 0-2 0 0 0-1 0-1 0 0-1 0-1-1 0-1 0-2 0-4h0l-26 0 2 164c2 1 4 2 6 3 2 3 3 5 3 8l1 42c0 3-1 6-3 8-2 2-4 3-6 3l0 35z m-23 0l18 0-1-34-18 0 1 34z m8-61c2 0 4 2 4 4l0 9 5 0h1l0-37h-1l-18 0-2 0 1 37 1 0 5 0 0-9c0-2 1-4 4-4z m-2 4l1 9 0 5 0 2c0 1 0 1 0 1 0 0 0 0 0 0 0 0 0 0 1 0h0c0 0 1 0 1 0 0 0 0-1 0-1l0-2 0-6 0-8c0-1 0-2-1-2-1 0-2 1-2 2z m-7 17l5 0c0 0 0 0 0-1l0-2-7 0c-3 0-5-2-5-4l0-39c0-2 2-4 4-4l23-1c2 0 4 2 4 5l0 39c0 2-2 4-4 4l-7 0 0 2c0 0 0 1 0 1l5 0 3 0h1c0 0 1 0 1 0 1 0 2-1 3-2 1-1 2-2 2-4l-1-42c0-1 0-3-2-4 0 0-1-1-2-1-1 0-1 0-2 0l-3 0-18 0-3 0h-1c-1 0-1 0-2 0-1 0-2 1-2 1-2 2-2 3-2 5l0 42c0 1 1 3 2 4 1 0 2 1 3 1 0 0 1 0 1 0l4 0z m18-59l-2-164-19 0 2 164 19 0z m-151 145l68-1c3 0 5-1 8-2 9-3 15-11 16-21l-117 1c1 13 12 23 25 23z m128-46l0-34c-3 0-5-2-7-3-2-3-3-5-3-8l-1-42c0-3 1-6 4-8 1-2 4-3 6-4l-2-163-196 1 1 162c3 1 5 2 7 3 2 3 3 5 3 8l0 42c0 3-1 6-3 8-1 2-3 3-6 3l1 37 196-2z m-221-93l-3 0h-1c0 0-1 0-1 0-1 0-2 1-3 1-1 1-2 3-2 4l1 42c0 2 0 3 1 4 1 1 2 2 3 2 1 0 1 0 2 0l3 0 5 0c0 0 0 0 0-1l0-2-7 0c-2 0-4-2-4-4l-1-39c0-2 2-4 5-4l22-1c2 0 4 2 4 5l1 39c0 2-2 4-4 4l-8 0 0 2c0 0 0 1 0 1l6 0 2 0h1c1 0 1 0 2 0 1 0 2-1 2-2 2-1 2-2 2-4l0-42c0-1-1-3-2-4-1 0-2-1-2-1-1 0-2 0-2 0l-4 0-18 0z m18-6l-2-162-18 0 2 162 18 0z m1 101l0-37-18 1 0 36 18 0z m-10-63c2 0 4 2 4 4l0 9 6 0h0l0-37h-1l-18 0-1 0 0 37 1 0 5 0 0-9c0-2 2-4 4-4z m-1 4l0 9 0 5 0 2c0 1 0 1 0 1 0 0 1 0 1 0 0 0 0 0 0 0h0c1 0 1 0 1 0 1 0 1-1 1-1l0-2 0-6 0-8c0-1-1-2-2-2 0 0-1 1-1 2z m-38 48c-1-1-2-3-3-4 1 1 2 3 3 4z m-28-19c8 1 16 4 22 10 0 1 0 1 1 2 0 0 0 1 1 1 1 2 3 4 4 6 1 2 2 5 3 7 0 1 1 2 1 3 0 1 0 1 0 2l22-1-1-36c-2 0-5-2-6-3-3-3-4-5-4-8l0-42c0-3 1-6 3-8 2-2 4-3 6-4l-2-162-21 1c-1 17-14 31-31 34l2 198z m-274 394l0 0c1-1 3-2 5-2l88 1c1 0 3 1 4 2 6-2 11-8 11-16l1-86-5 0-109-1-5 0 0 86c0 7 4 14 10 16z m-87-125l28 1v4c0 4 3 7 6 7 4 0 7-3 7-7v-4l22 0 8 0 11 0 109 2 20 0 14 0v2c0 4 3 7 7 7 3 0 6-3 6-7v-2l36 1c10 0 19-9 19-19l1-96 3-281 0-10 1-57h0l0-31c-19 0-39 0-53 0-2 0-5-1-7-1v4c0 3-3 6-6 6-4 0-7-3-7-6v-15l-167-2c-3 7-8 11-17 11v6c0 3-3 6-7 6-4 0-7-3-7-6v-6c-12 0-27 0-41 0l-2 180 0 20-1 92 0 19-2 164c0 10 9 18 19 18z m34-503c0-4 0-2 0 0l0 0z m711-185h-804c-42 0-77 34-77 77 0 42 35 76 77 76h804c42 0 77-34 77-76 0-43-35-77-77-77z m-711 185c0-2 0-4 0 0l0 0z m0 0c0-4 0-2 0 0l0 0z m0 0c0-2 0-4 0 0l0 0z m0 515c-3 0-6-3-6-7v-4l13 0v4c0 4-3 7-7 7z m198 0c-4 0-7-3-7-7v-2l14 0v2c0 4-3 7-7 7z m-191-7v-16c0-4-3-7-7-7-3 0-6 3-6 7v16c0 4 3 7 6 7 4 0 7-3 7-7z m-7-467c-3 0-6 3-6 6v32c0 4 3 7 6 7s7-3 7-7v-32c0-3-3-6-7-6z m0 63c-3 0-6 3-6 7v32c0 3 3 6 6 6s7-3 7-6v-32c0-4-3-7-7-7z m0 64c-3 0-6 3-6 6v32c0 4 3 7 6 7s7-3 7-7v-32c0-3-3-6-7-6z m0 63c-3 0-6 3-6 7v32c0 3 3 6 6 6s7-3 7-6v-32c0-4-3-7-7-7z m0 64c-3 0-6 3-6 7v31c0 4 3 7 6 7s7-3 7-7v-31c0-4-3-7-7-7z m0 63c-3 0-6 3-6 7v32c0 4 3 6 6 6s7-2 7-6v-32c0-4-3-7-7-7z m0 64c-3 0-6 3-6 6v32c0 4 3 7 6 7s7-3 7-7v-32c0-3-3-6-7-6z m0-422c0-4 0-2 0 0l0 0z m205 508v-16c0-4-3-7-7-7-4 0-7 3-7 7v16c0 4 3 7 7 7 4 0 7-3 7-7z m-7-467c-4 0-7 3-7 6v32c0 4 3 7 7 7s7-3 7-7v-32c0-3-3-6-7-6z m0 63c-4 0-7 3-7 7v32c0 3 3 6 7 6s7-3 7-6v-32c0-4-3-7-7-7z m0 64c-4 0-7 3-7 6v32c0 4 3 7 7 7s7-3 7-7v-32c0-3-3-6-7-6z m0 63c-4 0-7 3-7 7v32c0 3 3 6 7 6s7-3 7-6v-32c0-4-3-7-7-7z m0 64c-4 0-7 3-7 7v31c0 4 3 7 7 7s7-3 7-7v-31c0-4-3-7-7-7z m0 63c-4 0-7 3-7 7v32c0 4 3 6 7 6s7-2 7-6v-32c0-4-3-7-7-7z m0 64c-4 0-7 3-7 6v32c0 4 3 7 7 7s7-3 7-7v-32c0-3-3-6-7-6z" horiz-adv-x="1000" />

<glyph glyph-name="history" unicode="&#xe805;" d="M125 366c9 235 202 421 437 421 241 0 437-196 437-437s-196-437-437-437c-116 0-227 46-309 128l-11 11 71 71 11-11c63-63 149-99 238-99 186 0 336 151 336 337 0 186-150 336-336 336-180 0-328-141-336-320h123l-174-174-174 174h124z m388 200c0 27 22 48 49 48 27 0 49-22 49-48v-196l138-139c19-18 19-49 0-68 0 0 0 0 0 0-19-19-50-20-69 0 0 0 0 0 0 0l-153 152-14 14v236l0 1z" horiz-adv-x="1000" />

<glyph glyph-name="loading-area" unicode="&#xe806;" d="M946-65v0c-3 25-23 44-48 44s-46-19-49-44v0c0-2 0-3 0-5 0-27 22-49 49-49s48 22 48 49c0 1 0 3 0 5z m-48-37c-18 0-32 14-32 31 0 18 14 32 32 32s31-14 31-32c0-17-14-31-31-31z m0 60c-16 0-29-13-29-28 0-16 13-29 29-29 15 0 28 13 28 29 0 16-13 28-28 28z m0-47c-11 0-19 8-19 18 0 11 8 19 19 19 10 0 18-8 18-19 0-10-8-18-18-18z m11 19c0-7-5-12-12-12s-12 5-12 12 6 12 12 12 12-6 12-12z m-238 5v0c-3 25-24 44-49 44s-46-19-49-44v0c0-2 0-3 0-5 0-27 22-49 49-49s49 22 49 49c0 1 0 3 0 5z m-49-37c-17 0-31 14-31 31 0 18 14 32 31 32s31-14 31-32c0-17-14-31-31-31z m0 60c-16 0-29-13-29-28 0-16 13-29 29-29 16 0 28 13 28 29 0 16-12 28-28 28z m0-47c-10 0-19 8-19 18 0 11 9 19 19 19 10 0 18-8 18-19 1-10-8-18-18-18z m12 19c0-7-5-12-12-12s-12 5-12 12 5 12 12 12 12-6 12-12z m-430 5v0c-3 25-23 44-49 44s-46-19-48-44v0c-1-2-1-3-1-5 0-27 22-49 49-49s49 22 49 49c0 1 0 3 0 5z m-49-37c-17 0-31 14-31 31 0 18 14 32 31 32s32-14 32-32c0-17-14-31-32-31z m0 60c-15 0-28-13-28-28 0-16 13-29 28-29 16 0 29 13 29 29 0 16-13 28-29 28z m0-47c-10 0-18 8-18 18 0 11 8 19 18 19 11 0 19-8 19-19 0-10-8-18-19-18z m12 19c0-7-5-12-12-12s-12 5-12 12 6 12 12 12 12-6 12-12z m832 57v30h-8v27l-158 23-3 9-42 105c-6 16-17 30-32 41h-43v5h-7v1c0 14-9 25-21 25-11 0-20-11-20-25v-1h-7v-5h-82v-182l-28-13v-38h-20v186c0 2-2 5-5 5h-1v26c0 3-2 5-5 5h-1v112h8c3 0 5 2 5 5v85l164 164 267 0c3 0 5 1 7 3 1 2 2 4 2 6v196c7 4 11 11 11 19-1 10-10 18-21 18h-214c-8 0-72 0-87-1-47-2-68-19-111-62l-532-533c-9-9-14-21-14-33v-19c0-5 4-7 8-7v-187c0-4 3-8 7-8 7-2 15-3 22-3 15 0 30 3 44 10v-41h13v2c0 23 14 42 34 49h54c20-7 35-26 35-49v-2h342v2c0 29 24 52 53 52h18c29 0 52-23 52-52v-2h153v2c0 29 23 52 52 52h18c29 0 53-23 53-52v-2h32v39h4v9h-4v4h8z m-480 346h-68v2l68 68v-70z m-6-132v-22h-56v22h56z m-50 10v112h43v-112h-43z m-436-226v40l13 3 338 338 43 43 24-24 13 61 13 56-56-12-62-14 24-24-42-42-299-299-9-2v71l548 548c40 40 53 50 86 51 11 1 60 1 84 1h206v-185l-261 1c-2 0-5-1-7-3l-581-581c-20-20-47-30-75-27z m391 52h-139v-13h139v-8h-139v-13h139v-10h-192v58h192v-14z m29 169v-26h-1c-3 0-6-3-6-6v-186h-11v68c0 3-3 5-6 5h-202c-2 0-5-2-5-5v-68h-113c4 4 8 7 12 11l327 326c1-1 2-2 4-2h7v-112h-1c-3 0-5-3-5-5z m72-212h-68v175h68v-175z m113 73h-37v139c0 0 16 0 37 0v-139z m6 0v139c0 0 52 0 92 0 53-45 54-139 54-139h-146z m356-86v-6h-5v6h5z m-19 10v21h20v-21h-20z" horiz-adv-x="1000" />

<glyph glyph-name="check-in-counter" unicode="&#xe807;" d="M394 543c-4 0-7 3-7 8l0 17c0 5 3 8 8 8 4 0 7-3 7-8l0-18c0-4-4-7-8-7z m-5-496c-5 0-8 3-8 7l0 36c0 4 4 7 8 7 4 0 8-3 8-7l-1-36c0-4-3-7-7-7z m0 71c-4 0-7 3-7 7l0 36c0 4 4 7 8 7s7-3 7-8l0-35c0-4-4-7-8-7z m1 71c-4 0-7 3-7 7l0 35c0 5 3 8 8 8 4 0 7-3 7-8l0-35c0-4-4-7-8-7z m1 70c-4 0-7 4-7 8l0 35c0 4 3 8 8 8 4 0 7-4 7-8l0-35c-1-4-4-8-8-8z m1 71c-4 0-8 4-8 8l1 35c0 4 3 8 7 8 5 0 8-4 8-8l-1-35c0-5-3-8-7-8z m1 71c-4 0-8 4-8 8l1 35c0 4 3 8 7 8 4 0 8-4 8-8l-1-35c0-5-3-8-7-8z m1 71c-4 0-8 3-8 8l1 35c0 4 3 8 7 8 4 0 8-4 8-8l-1-35c0-5-3-8-7-8z m-6-479c-4 0-7 4-7 8l0 18c0 4 3 7 7 7 4 0 8-3 8-7l0-18c-1-4-4-8-8-8z m235 571l0-16c0-4-4-8-8-8-4 0-8 4-8 8l1 15 15 1z m-14-520c-4 0-7 4-7 8l0 35c0 4 3 8 8 8 4 0 7-4 7-8l0-35c-1-5-4-8-8-8z m1 71c-4 0-8 3-8 8l1 35c0 4 3 7 7 7s8-3 8-7l-1-35c0-5-3-8-7-8z m1 71c-4 0-8 3-8 8l1 35c0 4 3 7 7 7 4 0 8-3 8-7l-1-36c0-4-3-7-7-7z m1 71c-5 0-8 3-8 8l1 35c0 4 3 7 7 7s8-3 8-7l-1-36c0-4-3-7-7-7z m0 71c-4 0-7 3-7 7l0 36c0 4 4 7 8 7 4 0 7-3 7-7l0-36c0-4-4-7-8-7z m1 70c-4 0-7 4-7 8l0 35c0 5 3 8 8 8s7-3 7-8l0-35c0-4-4-8-8-8z m1 71c-4 0-7 4-7 8l0 35c0 4 3 8 8 8 4 0 7-4 7-8l0-35c0-4-4-8-8-8z m-6-478c-4 0-7 3-7 7l0 18c0 4 4 8 8 8s7-4 7-8l0-18c0-4-3-7-8-7z m85 362l-68 46 33 66 3 5 1 10 13 114c3 30-18 57-48 61l-86 10 13 117c3 21-10 40-29 47 0 3-2 6-6 7l-120 13c-3 0-6-2-7-5l0 0c-20-3-37-19-39-39l-13-118-25 3-61 7c-30 3-57-18-61-49l-13-120v-3l-1-504 0 0v-47c0-18 15-32 33-32h17l1-6h0c-17-6-29-22-29-41 0-24 20-44 44-44 25 0 44 19 44 44 0 19-11 35-28 41l1 6h49v11l221 0h1v-11h49l1-6c-17-7-28-23-28-41 0-25 19-44 44-44 24 0 44 19 44 44 0 18-12 34-28 41h0l0 6h17c18 0 33 14 33 32v47l0 48c0 0 0 0 0 0l0 61 29 89-58 50 57 84z m-320 449c1 10 8 18 17 20l0 0c1-2 3-3 6-3l119-14c3 0 5 1 6 3 9-5 14-14 13-24l-14-117-6 0-148 17-7 1 14 117z m-99-907c0-16-13-29-29-29-16 0-29 13-29 29 0 11 6 20 15 25l2-31c0-5 5-9 10-9h3c5 0 10 4 10 9l3 31h0c9-5 15-14 15-25z m-33 0c0 2 2 4 4 4 3 0 4-2 4-4 0-2-1-4-4-4-2-1-4 1-4 4z m386 0c0-16-13-29-29-29-16 0-29 13-29 29 0 11 6 20 15 25h0l3-31c0-5 5-9 11-9h2c6 0 10 4 11 9l2 31c9-5 14-14 14-25z m-33 0c0 2 2 4 4 4 3 0 5-2 5-4 0-2-2-4-5-4-2-1-4 1-4 4z m65 315l-22-68-2-7 0-94 0 0 0-43c-27 0-53 0-72 0-4 0-7 0-10-1-9-2-14-7-17-15h-2l-228 1c-4 9-11 14-24 15-1 0-1 0-2 0-5 0-10 0-16 0-16 0-36 0-56 0l0 528 14 120c2 14 15 24 29 22l37-4 18-2 30-4 11-1 16-2 148-16 27-3 19-3 18-2 48-5c15-2 25-15 23-29l-13-118-46-89 66-45-56-81 62-54z m-380-173c-6 0-12 6-12 12v480l0 1 11 77c1 7 7 11 13 10 7 0 11-6 11-13l-11-77v-478c0-6-5-12-12-12z m142 0c-6 0-12 6-12 12v457l0 0 9 68c1 6 7 11 13 10 7-1 11-7 10-13l-8-67v-454c0-7-5-13-12-13z m133 0c-6 0-12 6-12 12v92l16 47-54 76 42 61-53 41 53 133 3 37c1 6 6 11 13 11 7-1 11-7 11-13l-3-41-48-120 57-43-46-66 51-72-18-55v-88c0-6-5-12-12-12z m138 400l-4 4c-2 3-1 9 2 12l40 34c3 3 9 3 11-1l7-9c3-4 2-9-1-12l-44-29c-3-3-9-3-11 1z m18-186l4 6c2 4 8 6 12 3l54-25c5-3 7-9 4-13l-6-12c-3-4-8-5-13-3l-50 32c-5 2-7 8-5 12z m5 99l-1 9c0 6 5 12 13 12l79 10c7 0 13-5 14-11l1-19c0-6-5-12-13-12l-79 0c-8-1-14 4-14 11z" horiz-adv-x="1000" />

<glyph glyph-name="lost-and-found" unicode="&#xe808;" d="M955 484c0 0-1 1-2 1l-97 12-1 0-47 6 1 4c0 2-1 4-2 5-1 1-2 2-4 2l-54 7 0 1c1 5-3 10-8 10l-18 2c-4 1-8-1-9-5-4 1-8 3-9 6-2 5-7 38-24 57-14 15-53 19-76 22-24 3-63 8-80-3-21-15-34-46-36-50-2-3-7-3-11-3-1 4-4 7-8 7l-18 3c-5 0-9-3-10-8l0-2-31 4c-3 0-6-2-6-5l-1-5-28 3c0 1 0 2 0 2-5 105-87 187-188 187-103 0-187-88-187-196 0-52 19-100 53-137 33-36 79-57 127-59l-18-154h0l-15-97c-4-28 16-55 45-59l104-11 43-6 0-4c-1-3 1-6 5-7l59-7c0 0 0 0 0 0 3 0 6 3 6 6l1 4 262-32 0-4c-1-4 2-7 5-7l59-7c0 0 0 0 1 0 3 0 5 2 6 5l0 5 48-6 99-14c29-4 55 17 58 45l9 103 0 1 26 218 14 102c4 28-15 54-43 58z m-71-8c1 4 5 7 9 6 5 0 8-4 7-9 0-2-2-4-4-6-1 0-3-1-5-1-1 1-3 1-4 2-2 2-3 5-3 8z m-135 33l47-6-3-23-5-41c0-5-3-9-8-10-1-1-4-2-6-1l-22 2c-2 1-3 1-4 2-1 0-1 0-1 1 0 0 0 0 0 0-4 2-6 7-6 11l6 42 2 23z m-272 35c35-4 24 23 54 46 9 7 15 3 35-3 6-2 63-9 70-8 20 1 27 3 34-5 24-30 7-54 42-58l0-1-235 28 0 1z m-69-59l5 41 3 23 24-3 23-3-1-10-2-12-5-42c0-4-3-8-8-10-2-1-4-1-6-1l-22 3c-2 0-3 1-4 2-1 0-1 0-1 0 0 0 0 0 0 0-4 3-6 7-6 12z m-231-413c0-4-4-7-9-7-4 1-7 5-6 9 0 5 4 8 9 7 4 0 7-4 6-9z m5 84c-1-4-5-7-9-6-5 0-8 4-7 9 0 4 5 7 9 6 4 0 7-4 7-9z m-157 392c0 94 74 171 164 171 87 0 158-71 162-163 0-3 0-6 0-8 0-6 0-11 0-15-1-20-4-37-11-53-6-15-15-29-26-43-10-11-7-27 0-61 1-3 1-6 2-10-1 1-3 2-4 2-28 14-44 22-55 22-3 0-6-1-9-2-14-7-26-10-42-12-5 0-11 0-18 0-1 0-3 0-5 0-88 3-158 79-158 172z m242-500c0-5-4-8-9-7-4 0-7 5-7 9 1 4 5 7 9 7 5-1 8-5 7-9z m76 2l0 0-71 9-88 112 22 181c1 0 2 0 2 0 18 2 33 6 49 13 8 0 31-12 44-18 10-5 20-10 27-13l20-8-3 22c-3 13-5 24-7 34-4 17-7 35-6 40 27 30 41 64 43 109l26-3-5-41c-1-8 2-16 7-21l-43-356c-6-4-11-11-12-19l-5-41z m64 34l-5-41-3-23-46 6 2 22 5 42c1 5 4 8 8 10 2 1 4 1 6 1l22-3c2 0 4 0 5-1 0 0 1-1 1-1 0 0 0 0 0 0 4-2 6-7 5-12z m-6 26c-1 0-1 0-2 0 0 0-1 1-1 1l-22 2c-1 1-2 1-3 1l42 345c0 0 0 0 1 0 0 0 1 0 1 0l23-3c0 0 1 0 2 0h0l-41-346z m276-100l-263 31 5 42c1 8-2 15-7 21l43 355c7 4 11 11 12 19l5 41 262-32-5-41c-1-8 2-15 7-21l-43-355c-6-4-10-11-11-19l-5-41z m63 34l-5-41-2-23-47 5 3 23 5 42c0 4 3 8 8 10 2 1 4 1 6 1l22-3c1 0 3-1 4-2 1 0 1 0 1 0 0 0 0 0 0 0 4-3 6-7 5-12z m-6 26c0 0-1 0-1 0-1 0-1 0-2 0l-22 3c-1 0-2 0-3 0l42 346c0 0 1 0 1 0 1 0 1 0 2 0l22-3c1 0 2 0 3 0l-42-346z m109-90c-1-4-5-7-9-7-4 1-8 5-7 9 0 5 4 8 9 7 4 0 7-4 7-9z m84-3c0-4-4-7-9-7-4 1-7 5-7 9 1 5 5 8 9 7 4 0 8-4 7-9z m23 91c0-4-4-8-9-7-4 1-7 4-7 9 1 4 5 7 9 7 5-1 8-5 7-9z m-19 12l0 0-109-88-74 9 5 42c1 7-2 15-7 20l43 356c6 4 11 11 11 18l6 42 69-9 89-118-33-272z m36 378c1 4 5 7 9 7 4-1 7-5 7-9-1-5-5-8-9-7-4 0-8 4-7 9z m16-95c-1-5-4-8-9-7-4 0-7 4-7 9 1 4 5 7 9 7 5-1 8-5 7-9z m-807 80c-61 88-72 97-72 129 0 44 36 80 80 80s80-36 80-80c0-32-11-41-72-129-3-4-9-6-13-3-1 1-2 2-3 3l0 0z m8 96c19 0 34 15 34 33s-15 34-34 34c-18 0-33-15-33-34 0-18 15-33 33-33 0 0 0 0 0 0l0 0z" horiz-adv-x="1000" />

<glyph glyph-name="password" unicode="&#xe809;" d="M232-149c-66 0-119 53-119 118v448c0 65 53 119 118 119h16v60c0 140 114 253 253 253s253-113 253-253v-60h16c65 0 118-54 118-119v-447c0-65-53-119-118-119h-537z m0 626c-33 0-60-27-60-60v-447c0-33 27-60 60-60h537c33 0 60 27 60 60v447c0 33-27 60-60 60h-74v119c0 107-88 194-195 194s-194-87-194-194v-119h-74z m268-407l0 0c-65 0-119 54-119 119s54 119 119 119 119-53 119-119c0-65-54-118-119-119l0 0z m0 179c-33 0-60-27-60-60 0-33 27-60 60-60 33 0 60 27 60 60 0 33-27 60-60 60z m168 229h-336v118c0 93 75 168 168 168s168-75 168-168v-118z m-277 58h218v60c0 60-49 110-109 110s-109-50-109-110v-60z" horiz-adv-x="1000" />

<glyph glyph-name="pengaturan" unicode="&#xe80a;" d="M500 484c74 0 134-60 134-134s-60-134-134-134c-74 0-134 60-134 134v0c0 74 60 134 134 134z m142 158c14-7 27-14 39-23 31-21 70-22 102-3l17 10c41-44 71-97 89-153l-17-10c-32-18-51-54-48-90 0-8 0-15 0-23s0-15 0-22c-3-37 15-72 48-90l17-10c-18-57-49-109-89-153l-17 10c-32 19-72 17-102-4-12-8-25-16-39-22-33-16-54-50-54-87v-20c-58-13-118-13-177 0v20c1 37-20 71-54 87-13 6-26 14-38 22-31 21-71 23-103 4l-17-10c-40 44-70 96-88 153l17 10c32 18 51 53 48 90-1 7-1 15-1 22s0 15 1 23c3 37-16 72-48 90l-17 10c18 57 48 109 88 153l17-10c32-19 72-18 103 3 12 9 25 16 38 23 34 15 55 49 54 86v20c59 13 119 13 177 0v-20c0-37 21-71 54-86l0 0z m237 207h-758c-66 0-120-54-120-120v-758c0-66 54-120 120-120h758c66 0 120 54 120 120v758c0 66-54 120-120 120z" horiz-adv-x="1000" />

<glyph glyph-name="star-1" unicode="&#xe80b;" d="M334 50l90-78-27-117 103 62 103-62-28 117 91 78-120 11-46 110-46-110-120-11 0 0z m166 480c87 0 158 71 158 158 0 87-71 157-158 157-87 0-158-70-158-157 0-87 71-158 158-158l0 0z m93 158c0-52-41-93-93-93-52 0-93 41-93 93 0 51 41 93 93 93 52 0 93-42 93-93l0 0z m53-282c62 0 113-50 113-113l0-73c0-18 14-32 32-32 18 0 32 14 32 32l0 74c0 98-80 177-178 177h-290c-99 0-178-80-178-178v-73c0-18 14-32 32-32 18 0 32 14 32 32v73c0 63 51 113 113 113h292z" horiz-adv-x="1000" />

<glyph glyph-name="logo-ragi" unicode="&#xe80c;" d="M1629 357v-14c0-83 76-158 162-158 92 0 168 73 168 166 0 3 0 9-3 9h-162v-68c0-4 63-2 72-2-4-16-45-35-74-35-53 0-93 44-93 99 0 44 18 81 41 105 17 17 38 33 62 43 4 1 25 7 25 9l-32 4c-45 4-93-27-116-46-24-20-50-68-50-112z m379-170h58v96c-26-3-58-62-58-96z m-11 232c36 1 69 96 57 96h-57v-96z m-797-150l-1-86h68v50c0 27-47 66-72 66l1 0 4-30z m524 148c21 14 29 30 68 30 40 0 63-27 69-29l47 48c-8 12-41 38-64 38-41 0-119-55-120-87z m273-217c2 2 8 26 10 31 4 10 8 18 14 27 5 9 11 15 19 22 3 2 26 14 26 15l0 205c-3-1-9-31-11-36-8-22-22-39-42-50-19-11-16 0-16-30 0-61 0-123 0-184z m-963 243c45 0 95 1 139-1 28-2 54-15 73-33 3-3 16-18 17-19 7 5 56 121-116 121h-112v-68z m312-44v-214h68v205c0 54 36 108 78 118l-36 4c-60 0-110-53-110-113z m87 35c6 0 15 9 30 9 24 0 46-21 46-44v-50c-38-1-45-1-82 0v-69h22c8 0 60 3 60-2v-93h70v203c0 51-22 90-55 108-21 11-41-4-56-15-11-8-34-30-35-47z m-399-251h69v130c50 0 103 8 138-22 7-6 23-26 26-28 7 33-11 68-23 85 2 6 13 17 13 26 1 5-11 19-14 23-8 8-35 29-49 30 0-12 6-16 0-30-4-8-11-13-21-14-14-3-51-1-69-1l-1 50h-69v-249z m-272 465c-104 104-290 168-469 88-127-58-251-195-251-378v-24c0-120 66-225 127-285 62-63 166-121 290-121h13c180 0 323 126 378 252 78 180 19 362-88 468z m52-453c-49-114-179-228-342-228h-12c-113 0-208 53-264 109-55 55-115 150-115 259v22c1 166 113 291 228 343 162 73 331 15 426-80 96-96 150-261 79-425z m-193 90c18-27 31-63 31-105h-42c0 36-20 79-37 98-19 19-52 47-88 47v-94c0-10 1-91-2-91h-37c-7 0-4 35-4 43v142c-35-1-71-28-88-48-17-20-27-41-33-68-1-3-3-29-5-29h-40c-1 0-2 1-2 2 0 42 15 77 31 103 10 16 50 58 69 63v1c-19 4-58 46-69 63-16 24-31 62-31 102 0 2 1 2 2 2h40c2 0 4-25 5-28 6-27 16-49 32-69 16-19 55-48 88-48v182c0 3 8 3 11 3 14 0 18 0 32-1v-184c35 0 72 28 88 47 18 21 37 58 37 97h42c0-43-12-77-31-106-27-40-64-57-68-62 19-4 58-46 69-62z" horiz-adv-x="2109" />

<glyph glyph-name="profile4" unicode="&#xe80d;" d="M241 575c0 143 116 259 259 259s259-116 259-259c0-143-116-259-259-259s-259 116-259 259z m689-576c-259-178-600-178-859 0 30 130 118 240 238 298 114-84 268-84 382 0 121-58 208-168 239-298z" horiz-adv-x="1000" />

<glyph glyph-name="scan" unicode="&#xe80e;" d="M370 425l238 412c-35 8-72 12-108 12-115 0-226-40-315-112l182-317 3 5z m606 75c-46 146-156 262-299 316l-183-316h482z m13-50h-374l15-25 237-412c85 92 132 212 132 337 0 33-3 67-10 100l0 0z m-662-100l-194 337c-85-92-132-212-132-337 0-34 3-67 10-100h374l-58 100 0 0z m-303-150c46-145 157-262 299-316l183 316h-482z m562 0l-194-337c35-8 72-12 108-12 115 0 226 40 315 112l-182 317-47-80 0 0z" horiz-adv-x="1000" />

<glyph glyph-name="search" unicode="&#xe80f;" d="M712 224h-46l-17 15c57 67 89 153 89 242-2 203-168 367-371 366s-367-168-366-371c1-203 167-367 370-366 88 1 174 32 242 89l17-15v-45l284-286 85 86-287 285z m-341 0c-142 0-257 115-257 256s114 257 255 257 257-114 258-256c0 0 0 0 0 0 0-141-113-256-254-257-1 0-1 0-2 0h0z" horiz-adv-x="1000" />

<glyph glyph-name="setting" unicode="&#xe810;" d="M871 301c2 16 3 33 3 49 0 16-1 33-3 49l105 82c9 8 12 22 6 32l-100 173c-6 10-19 15-30 11l-124-50c-26 20-55 36-85 49l-19 132c-1 12-12 21-24 21h-200c-12 0-23-9-24-21l-19-132c-30-13-59-29-84-49l-125 50c-11 5-24 0-30-11l-100-173c-6-10-3-24 6-32l105-82c-2-16-3-33-3-49 0-16 1-33 3-49l-105-82c-9-8-12-21-6-32l100-172c6-11 19-16 30-11l125 49c25-20 54-36 84-49l19-132c2-12 12-21 24-21h200c12 0 23 9 24 21l19 132c30 13 59 29 85 49l124-50c11-4 24 1 30 11l100 173c6 11 4 24-6 32l-105 82 0 0z m-371-125c-96 0-174 78-174 174 0 97 78 175 174 175 97 0 175-78 175-175 0 0 0 0 0 0 0-96-78-174-175-174l0 0z" horiz-adv-x="1000" />

<glyph glyph-name="unloading-area" unicode="&#xe811;" d="M54-70c0-27 22-49 49-49s48 22 48 49c0 1 0 3 0 5v0c-3 25-23 43-48 43s-46-18-49-43v0c0-2 0-4 0-5z m17-1c0 18 14 32 32 32s31-14 31-32c0-17-14-31-31-31s-32 14-32 31z m3 0c0-15 13-28 29-28 15 0 28 13 28 28 0 16-13 29-28 29s-29-13-29-29z m10 0c0 11 8 19 19 19 10 0 18-8 18-19 0-10-8-18-18-18-11 0-19 8-19 18z m19 13c6 0 12-6 12-12s-6-12-12-12-12 5-12 12c0 6 5 12 12 12z m226-12c0-27 22-49 49-49s49 22 49 49c0 1 0 3 0 5v0c-3 25-24 43-49 43s-46-18-48-43v0c-1-2-1-4-1-5z m18-1c0 18 14 32 31 32s31-14 31-32c0-17-14-31-31-31-17 0-31 14-31 31z m3 0c0-15 13-28 28-28 16 0 29 13 29 28 0 16-13 29-29 29-16 0-28-13-28-29z m10 0c0 11 8 19 18 19 11 0 19-8 19-19 0-10-8-18-19-18-10 0-19 8-18 18z m18 13c7 0 12-6 12-12s-5-12-12-12-12 5-12 12c0 6 6 12 12 12z m418-12c0-27 22-49 49-49 27 0 49 22 49 49 0 1 0 3-1 5v0c-2 25-23 43-48 43s-46-18-49-43v0c0-2 0-4 0-5z m18-1c0 18 14 32 31 32 17 0 31-14 31-32 0-17-14-31-31-31-18 0-32 14-31 31z m2 0c0-15 13-28 29-28 16 0 28 13 28 28 0 16-13 29-28 29-16 0-29-13-29-29z m10 0c0 11 8 19 19 19 10 0 19-8 19-19 0-10-9-18-19-18-11 0-19 8-19 18z m19 13c6 0 12-6 12-12s-6-12-12-12-12 5-12 12c0 6 5 12 12 12z m140 281l-532 533c-43 43-64 60-111 62-15 1-79 1-86 1h-215c-11 0-20-8-21-18 0-9 4-16 11-19v-196c0-2 1-4 2-6 2-2 5-3 7-3l267 0 164-164v-85c0-3 2-5 5-5h8v-112h-1c-3 0-5-2-5-5v-26h-1c-3 0-5-3-5-5v-186h-20v38l-28 13v182h-82v5h-7v1c0 14-9 25-20 25-12 0-21-11-21-25v-1h-7v-5h-43c-14-11-26-25-32-41l-41-105-4-9-158-23v-27h-8v-30h8v-4h-4v-9h4v-39h32v2c0 29 24 53 53 53h18c29 0 53-24 53-53v-2h152v2c0 29 23 53 53 53h17c29 0 53-24 53-53v-2h342v2c0 23 15 42 35 49h54c20-7 35-26 35-49v-2h12v41c14-6 29-9 44-9 8 0 15 0 22 2 4 0 7 4 7 9v186c4 0 8 3 8 7v19c0 13-5 24-14 33z m-973-248h-6v6h6v-6z m13 16h-20v21h20v-21z m337 76h-146c0 0 1 94 55 139 39 0 91 0 91 0v-139z m43 0h-37v139c22 0 37 0 37 0v-139z m76 266v70l68-68v-2h-68z m62-132v-22h-55v22h55z m-49 10v112h43v-112h-43z m55-217h-68v175h68v-175z m225 0h-192v10h139v12h-139v9h139v12h-139v14h192v-57z m10-6v68c0 3-3 5-5 5h-202c-3 0-5-2-5-5v-68h-12v186c0 3-3 5-5 5h-1v27c0 2-3 5-6 5h-1v112h7c2 0 3 1 4 2l327-327c4-3 8-7 12-10h-113z m189-3c-28-3-55 7-75 27l-581 581c-2 1-4 2-7 2l-261 0v66h278l246-245-24-24 61-13 56-13-12 56-14 62-24-25-43 43 0 0-158 159-62 61h-304v58h206c24 0 73 0 85-1 32-1 45-11 85-51l548-548v-195z" horiz-adv-x="1000" />

<glyph glyph-name="username" unicode="&#xe812;" d="M870-135h-740c-63 0-115 52-115 115v29c1 141 116 256 257 256h105l6-2c74-35 160-35 234 0l6 2h75v1h30c142 0 257-116 257-257v-29c0-63-52-115-115-115z m-598 342c-109 0-198-89-198-198v-29c0-31 25-56 56-56h740c31 0 56 25 56 56v29c0 105-83 192-186 198h-104c-87-38-185-38-272 0h-92z m228 57l0 0c-157 0-285 128-285 285 0 158 128 286 285 286s285-128 285-286-128-285-285-285z m0 512c-125 0-227-102-227-227 0-125 102-226 227-226 125 0 227 101 227 226s-102 227-227 227z" horiz-adv-x="1000" />

<glyph glyph-name="baggage" unicode="&#xe813;" d="M783 594v0c-2 29-26 52-56 54-1 0-2 0-3 0h-84v140c0 28-23 51-51 51h-11c-3 6-10 10-17 10h-122c-7 0-14-4-17-10h-11c-28 0-51-23-51-51v-140h-84c-1 0-2 0-3 0-30-1-54-25-56-54v0c0-1 0-1 0-1 2-119 128-214 283-214 155 0 281 95 282 214 1 0 1 0 1 1z m-394 194c0 12 10 22 23 22h9c3-8 10-13 19-13h121c9 0 16 5 18 13h10c12 0 22-10 22-22v-140h-222v140z m176-340c-3-3-7-4-11-4h-108c-8 0-15 6-15 15 0 4 1 8 4 11 3 2 7 4 11 4h108c9 0 15-7 15-15 0-4-1-8-4-11z m218 56v-531c0-31-27-57-59-57h-20c7-7 10-16 10-26 0-22-16-39-36-39-20 0-36 17-36 39 0 10 4 19 10 26h-304c6-7 10-16 10-26 0-22-16-39-36-39-20 0-37 17-37 39 0 10 4 19 10 26h-19c-33 0-59 26-59 57v531c16-30 39-58 70-81 57-43 133-67 213-67s155 24 213 67c30 23 54 50 70 81z" horiz-adv-x="1000" />

<glyph glyph-name="baggage-claim" unicode="&#xe814;" d="M828 557l0 0c0-2 0-3 0-5 0 2 0 3 0 5z m-619 41c4 3 7 7 10 10-3-3-6-7-10-10z m619-46c0 2 0 3 0 5h0c0-2 0-3 0-5z m-609 56c-3-3-6-7-10-10 4 3 7 7 10 10z m512-258c-1-5-6-10-12-9-6 1-10 6-9 12 0 6 6 10 12 9 5 0 10-6 9-12z m9 72c-1-6-6-10-12-10-6 1-10 6-9 12 0 6 6 10 12 9 5 0 10-6 9-11z m-456-80c-1-6-6-10-12-9-6 0-10 6-9 12 1 5 6 10 12 9 6-1 10-6 9-12z m7 58c0-5-6-10-11-9-6 1-10 6-10 12 1 6 6 10 12 9 6 0 10-6 9-12z m9 72c0-6-6-10-11-9-6 0-10 6-10 11 1 6 6 10 12 10 6-1 10-6 9-12z m629-10l-1 0 3 25 4 29c5 37-22 72-60 76l-37 5-48 6-113 14c3 32-15 62-43 74-7 3-14 5-21 6l-136 17c-12 2-25 0-36-4-1-1-2-1-2-2-2 0-3-1-4-1-21-11-36-30-40-54l-118 14-80 11c-37 4-71-22-76-60l-4-32-17-136c-57-20-92-73-99-105l0 0 0-1c1-37 30-68 73-95l-8-66-4-36c-5-37 21-71 59-76l31-4 44-5 542-68 26-4 35-4c37-5 72 22 76 59l27 216c50 15 86 39 97 74l0 1 0 1c1 32-20 92-70 125z m-101 95c0-2 0-3 0-5 0 2 0 3 0 5l0 0z m-54 6l54-7h0c0-1 0-3 0-5 1-16 8-31 18-43 2-1 3-3 4-4 2-2 5-4 7-6 2-1 4-3 6-4 0 0 0 0 0 0 2-2 4-3 6-4 6-3 12-5 18-6l-18-143c-29-9-72-15-125-17l6 48c5 0 9 1 13 4 4 4 7 9 8 15l10 82c1 6 0 11-4 16-3 4-7 6-11 8l8 66z m-46 5l0 0 36-4-8-66-36 5 8 65z m3-120c4 0 8 3 9 7l2 17 10-1 2 0-9-72-2 0-35 5-3 0 9 72 3-1 9-1-2-17c0-4 3-8 7-9z m-1 8l2 18 1 10 1 5c0 0 0 1 0 1 1 0 1 1 1 1 0 0 1 0 1 0l1 0c0 0 1-1 1-1 1-1 1-1 1-2l-1-5-1-10-2-17c-1-2-2-3-3-2-2 0-3 1-2 2z m-1 35c0-1-1-1-1-2l0-4-14 1c-5 1-9-2-10-7l-9-75c-1-5 2-9 7-10l44-5c4-1 8 2 9 7l10 76c0 4-3 8-8 9l-14 2 1 4c0 1 0 1 0 2l10-1 5-1 2 0c1 0 3-1 4-1 1-1 2-2 4-4 2-2 2-5 2-8l-10-82c-1-3-2-6-5-8-1-1-3-2-5-2-1 0-2 0-3 0l-7 1-35 4-6 1-2 0c-1 0-2 1-3 1-2 1-3 2-5 3-2 3-2 6-2 9l10 82c0 3 2 6 5 7 1 2 3 3 5 3 1 0 2 0 3 0l8-1 10-1z m11-118l-6-50c-12 0-24 0-36 0l6 54 36-4z m-266 316l136-17c6-1 11-3 16-5 16-9 28-27 26-46l-231 28c4 25 28 43 53 40z m-139-72l383-47-8-66c-5 0-10-2-14-5-5-4-7-9-8-15l-10-82c-1-5 0-11 4-16 3-4 7-6 12-8l-7-55c-21 0-42 0-64 1-6 1-11-2-14-6-11 3-15 5-16 6-4 1-7 4-11 7-4 3-9 6-13 8-2 1-9 5-14 8-14 9-20 13-24 12-4 0-6-2-8-5-3-5-2-14 1-21 2-4 6-7 13-13 3-2 8-6 10-8-6-4-25-10-39-9-7 1-33 1-41-7-2-3-3-6-3-9 2-14 21-14 34-14-1 0-3 0-4-1-6-1-11-3-13-4-7-2-14-4-18-9-1 3-3 5-6 6-4 1-11-2-26-9-6-3-13-6-15-7-4-1-9-3-14-6-4-2-8-4-11-5-2-1-9-2-18-4-2 4-5 7-10 8-26 5-50 11-73 16l20 164c5 0 9 1 13 4 5 4 8 9 8 15l10 82c1 6 0 11-4 16-3 4-7 6-11 8l9 70z m219-371c-5 2-19-6-25-10-7-5-15-8-15-8 0 0 0 0-1 0-7-4-15-7-17-7-1 1-1 1-1 1 0 1 1 3 4 6 5 5 26 18 33 23 2 1 3 3 2 5-1 2-3 4-5 4-1 0-11-1-15-2-1-1-3-1-5-2-28-7-36-7-38-6 0 1-1 2 0 3 1 3 10 5 13 6 3 1 7 2 13 4 34 10 34 10 35 12 1 2 1 4 1 6-2 3-5 3-26 2-2 0-4 0-7 0-7 0-25 0-26 5 0 1 0 1 0 1 4 3 18 5 34 4 15-1 47 8 49 16 2 6-4 11-13 18-4 4-10 8-11 10-3 6-2 11-1 12 3-1 12-7 17-10 8-5 14-8 17-10 3-1 7-4 11-6 3-3 7-6 11-8 2-1 6-3 19-7l-1-49c-5-2-9-6-13-8l-1-1c-2-2-5-3-8-4-4-1-9-2-12-6-3-2-6-9-12-20-4-7-7-14-10-17-3-5-7-6-9-6 0 2 1 6 2 9 1 2 1 3 2 5 1 5 5 13 7 20 4 7 4 9 4 10 0 2-1 4-2 5z m-130-27c1-9 31-21 47-22 16-2 30-6 33-9 0-1 0-1 0-1-2-6-20-3-27-2-2 1-4 1-6 1-22 4-24 4-26 1l-2-3 1-2v0c2-2 2-3 35-17 4-3 9-4 11-6 3-1 12-5 12-8 1-1 0-2 0-2-3-1-11 0-37 11-2 1-4 2-5 2-4 1-14 3-15 4l-19 4 15-13c7-5 26-21 30-26 3-4 4-6 3-7 0 0 0-1 0-1-2 0-10 4-17 9l-1 0c0 0-7 4-14 10-5 5-17 15-22 14-2-1-4-3-4-4 0-2 0-4 3-12 1-6 4-15 5-20 0-2 0-3 0-4 1-4 1-8 1-10-1 0-5 2-8 7-2 3-4 11-7 18-4 11-7 18-9 22-3 3-7 5-11 7-3 1-6 3-7 5l-2 1c-4 4-9 10-16 12l10 47c8 1 16 3 20 4 4 2 8 4 12 6 5 2 9 5 12 5 4 1 9 3 17 7 6 3 16 8 20 9 0-2 0-7-3-13-2-1-8-5-12-8-11-6-18-10-17-16z m-144 42c-12 3-24 7-35 10l20 156 35-4-20-162z m10 362l35-5-9-70-35 5 9 70z m1-125c5 0 8 3 9 7l2 17 11-1 1 0-9-72-1 0-36 5-3 0 10 72 2-1 10-1-2-17c-1-4 2-8 6-9z m-1 8l2 18 1 10 1 5c0 0 0 1 1 1 0 0 0 1 0 1 1 0 1 0 2 0l0 0c1 0 1-1 2-1 0-1 0-1 0-2l-1-5-1-10-2-17c0-2-1-3-3-2-1 0-2 1-2 2z m-1 35c0-1 0-1 0-1l-1-5-14 2c-5 0-9-3-9-8l-10-75c-1-5 3-9 7-10l44-5c4-1 9 3 9 7l10 76c0 4-3 9-7 9l-15 2 1 5c0 0 0 1 0 1l11-1 5-1 2 0c1 0 2-1 3-1 1-1 3-2 4-3 2-3 3-6 2-9l-10-82c0-3-2-6-4-8-2-1-3-2-5-2-2 0-3 0-4 0l-7 1-35 4-6 1-2 0c-1 0-2 1-3 1-2 1-3 2-5 3-2 3-2 6-2 9l10 82c0 3 2 5 5 7 1 2 3 2 5 3 1 0 2 0 3 0l8-1 10-1z m-70 67c-3-3-6-7-10-10 4 3 7 7 10 10z m-61-32c17 0 33 6 46 16 1 1 2 2 2 2 1 1 2 2 3 3 4 3 7 7 10 11 3 4 5 8 7 13 1 2 2 4 3 7 0 0 1 1 1 2l49-6-8-70c-5 0-10-2-14-5-5-3-8-9-9-14l-10-82c0-6 1-12 5-17 3-4 7-6 12-7l-20-155c-46 14-84 30-108 45l31 257z m-82-316c-38 24-64 52-65 84 6 27 37 74 85 94l-10-75c-1-1-1-2-1-4 0-1 0-3 0-4 0-3 1-6 2-9 5-13 19-25 38-37 27-17 66-32 109-45 3-1 6-2 10-3 11-3 23-6 35-10 3-1 7-1 10-2 24-6 49-12 72-16 3-1 4-3 4-5 0 0 0 0 0-1l-13-60-1-1 0-1c0 0 0 0 0 0-22 5-46 10-71 17-3 0-7 1-10 2-12 3-23 6-35 10-3 1-6 2-10 3-38 11-76 25-109 41-14 7-27 14-40 22z m89-152c0 34-22 65-55 75l6 45c32-15 70-29 108-40l-10-86-49 6z m94-12l-35 4 10 84c12-3 23-6 35-9l-10-79z m11-1l9 77c24-6 47-11 70-16 1 0 1 0 2 0 2 0 4 1 6 2 2 1 4 4 4 6l1 4c4-1 9-5 12-9l1-1c4-3 7-5 11-7 3-1 5-2 7-4 1-2 5-12 8-19 3-8 5-16 8-20 4-7 11-12 16-12 2 0 3 0 4 1 7 2 6 10 5 20 0 1-1 3-1 4-1 6-3 14-5 20 3-1 6-3 8-6 7-6 14-10 16-11 5-4 17-12 25-10 3 1 6 4 7 8 1 4-1 10-5 15-2 3-8 8-13 12 27-11 38-12 43-7 4 5 4 9 3 11-1 7-9 12-17 15-3 1-7 3-12 5-1 1-3 2-5 3 13-2 32-5 36 9 0 3 0 6-2 8-7 10-33 13-40 13-13 1-31 10-37 14 3 2 7 5 11 7 7 5 12 8 14 11 2 2 3 4 4 7 4-6 15-6 43 1-6-4-11-8-14-10-5-5-8-10-7-15 0-4 3-6 6-8 7-3 20 3 26 6 2 1 10 4 17 9 3 2 6 4 9 5-3-6-6-14-8-19 0-2-1-3-1-4-3-10-5-17 2-21 2-1 3-1 5-1 6 0 12 3 17 10 3 3 6 10 10 18 4 7 9 16 11 18 1 2 4 3 7 4 4 1 8 2 11 5l2 1c2 1 4 3 6 5v0c0-3 1-6 3-8 2-2 4-3 7-3 20-1 40-1 61-1l-24-189-383 47z m393-48l24 189c12 0 24 0 36 1l-25-195-35 5z m176 45c0 0 0 0 0 0-2 0-3 0-5 0 0 0 0 0-1 0 0 0 0 0-1 0-2 0-4-1-7-1-1 0-2 0-4-1-2 0-3 0-5-1-1 0-3-1-4-1-1-1-2-1-4-2-2 0-3-1-5-2-1-1-2-1-3-2-1 0-3-1-4-2-5-3-9-6-13-10-1-1-2-2-2-2-2-2-3-3-5-5 0-1-1-2-1-3-1 0-2-1-2-2-1-2-2-3-3-4 0-1-1-2-1-3 0 0 0 0 0 0-1-1-1-2-2-3 0-1-1-2-1-3 0 0-1-1-1-1 0-1 0-1 0-2-1-2-2-5-3-8h0l-53 6 24 196c44 2 87 6 125 13l-19-157z m150 245c-9-31-41-52-85-66-14-4-29-8-45-11-38-7-82-11-125-13-3 0-7 0-10 0-13-1-25-1-36-1-4 0-7 0-11 0-22 0-43 1-62 1 0 0 0 0 0 1l0 7v0l1 56 0 0c0 0 0 0 0 0 1 2 3 4 6 4 20-1 42-2 63-2 4 0 7 0 11 0 12 0 24 0 36 1 4 0 7 0 11 0 48 2 92 7 125 17 22 6 38 14 46 25 3 3 5 7 6 10 0 2 1 3 1 4 0 2 0 3 0 4l9 75c43-31 60-83 59-112z m-373-82c0 0 0 0 0 0l1 56-1-56z" horiz-adv-x="1000" />

<glyph glyph-name="password-2" unicode="&#xe815;" d="M500 240c42 0 76-34 76-76 0-42-34-76-76-76-42 0-76 34-76 76v0c0 42 34 76 76 76z m239 146h-478c-16 0-29-14-30-30v-383c1-17 14-30 30-30h478c16 0 29 13 30 30v383c0 16-14 30-30 30z m-398 217c1-25-18-46-44-47-25-1-46 18-47 44 0 1 0 2 0 3 2 138 116 248 254 246 135-2 244-111 246-246v-127c62-5 110-58 110-120v-384c0-67-54-121-121-121h-478c-67 0-121 54-121 121v384c0 67 54 121 121 121h398v126c0 88-71 159-159 159s-159-71-159-159l0 0z" horiz-adv-x="1000" />

<glyph glyph-name="star-2" unicode="&#xe816;" d="M500 530c87 0 158 71 158 158 0 87-71 157-158 157s-158-70-158-157c0-87 71-158 158-158l0 0z m188-359l-47-110-119-11 91-78-28-117 103 62 103-62-28 117 91 78-120 11-46 110 0 0z m-210-121l-119 11-47 110-46-110-120-11 91-78-28-117 103 62 103-62-27 117 90 78 0 0z m168 421h-291c-99 0-178-80-178-178v-73c0-18 14-32 32-32s32 14 32 32v73c0 63 51 113 113 113h292c62 0 113-50 113-113l0-73c0-18 14-32 32-32 18 0 32 14 32 32l0 74c0 98-80 177-177 177l0 0z m-146 124c-52 0-93 41-93 93s41 93 93 93c52 0 93-42 93-93s-41-93-93-93z" horiz-adv-x="1000" />

<glyph glyph-name="star-0" unicode="&#xe817;" d="M646 471l-292 0c-98 0-177-80-177-178l-1-73c0-17 15-32 33-32s32 15 32 32l0 73c0 63 51 113 113 113l291 0c63 0 113-50 113-113l0-73c0-17 15-32 33-32 17 0 32 15 32 32l0 74c0 98-80 177-177 177l0 0z m-304 217c0-87 71-158 158-158 87 0 158 71 158 158 0 87-71 157-158 157-87 0-158-70-158-157l0 0z m158-93c-52 0-93 41-93 93 0 51 41 93 93 93 52 0 93-42 93-93 0-52-41-93-93-93z" horiz-adv-x="1000" />

<glyph glyph-name="bed" unicode="&#xe818;" d="M976 43c-6-12-19-11-31-11 0-3 0-6 0-9 0-22 0-44 0-66 0-14-6-20-20-20-19 0-37 0-56 0-14 0-19 6-19 20 0 21 0 43 0 64 0 4 0 7 0 11-233 0-465 0-699 0 0-3 0-7 0-10 0-22 0-44 0-66 0-13-6-19-19-19-19 0-38 0-56 0-14 0-20 6-20 20 0 22 0 44 0 66 0 3 0 6 0 10-6 0-11-1-16 0-10 0-16 6-16 16 0 74 0 147 0 221 0 10 7 16 17 16 4 1 9 0 15 0 0 11 0 20 0 30 0 12 0 24 2 36 5 22 18 39 38 50 6 4 8 8 8 15 0 76 0 151 0 227 0 9 1 17 8 22-14 35-9 62 14 82 22 17 51 19 75 5 27-17 34-42 23-85 184 0 368 0 554 0-15 37-8 67 27 87 24 13 53 8 72-10 17-16 29-46 11-79 11-5 9-16 9-25 0-75 0-150 0-225 0-7 2-10 8-14 26-15 39-37 40-67 0-16 0-32 0-49 12 0 25 3 32-11-1-77-1-154-1-232z m-31 211c-297 0-593 0-889 0 0-63 0-126 0-189 297 0 592 0 889 0 0 63 0 126 0 189z m-80 381c-244 0-486 0-729 0 0-74 0-147 0-221 21 0 41 0 59 0-4 14-10 28-11 42-2 14-2 29 0 44 4 41 35 71 76 72 45 1 90 1 135-1 35-1 66-27 71-61 5-32 8-65-11-95-1 0 0-1 0-1 31 0 61 0 90 0-4 14-10 27-12 41-2 14-2 29 0 43 2 40 34 72 73 73 46 2 92 1 138 0 38-1 69-31 73-68 3-31 5-62-15-89 22 0 42 0 63 0 0 74 0 147 0 221z m-777-348c275 0 550 0 825 0 0 14 0 27 0 40 0 36-19 55-54 55-234 0-467 0-701 0-8 0-16 0-24 0-25-1-45-20-46-46-1-16 0-32 0-49z m586 126c21 0 42 0 63 0 0 0 1 0 2 0 25 1 44 18 46 43 2 14 2 28 0 42-2 24-21 42-45 42-43 0-87 0-130 0-26 0-46-21-46-48 0-10 0-19 0-29 0-30 20-50 50-50 20 0 40 0 60 0z m-348 127c0 0 0 0 0 0-21 0-43 1-64 0-26 0-45-18-47-44-1-13-1-26 0-39 2-26 22-43 49-44 41 0 83 0 124 0 29 1 49 21 49 50 0 8 0 17 0 26 0 31-20 51-51 51-20 0-40 0-60 0z m-159 128c18 0 32 14 32 32-1 17-15 31-32 31-17 0-31-14-31-32 0-18 13-32 31-31z m666 0c18-1 32 13 32 31 0 18-14 32-32 32-17 0-31-14-31-31-1-18 14-32 31-32z m-714-699c0 21 0 42 0 63-11 0-21 0-31 0 0-22 0-42 0-63 10 0 20 0 31 0z m794 0c0 21 0 42 0 63-11 0-21 0-31 0 0-22 0-42 0-63 10 0 20 0 31 0z m-349 159c108 0 217 0 325 0 16 0 24-5 24-16 0-11-8-16-24-16-217 0-434 0-650 0-16 0-24 5-24 16 0 11 7 16 24 16 108 0 216 0 325 0z m-429 0c10 0 20 0 30 0 11-1 17-6 17-16 0-10-6-16-17-16-20 0-40 0-59 0-11 0-18 6-18 16-1 9 7 16 18 16 10 0 19 0 29 0z" horiz-adv-x="1000" />

<glyph glyph-name="chair" unicode="&#xe819;" d="M868 13c-3 3-9 6-15 6h-205c-1 2-1 3-1 4 0 32 0 63 0 94 0 5 2 6 6 7 43 10 72 51 66 94-6 44-44 76-89 74-46-3-92-7-139-10-39-3-78-5-117-9-8 0-9 3-12 13-4 15-14 52-14 55 10 9 17 20 21 33 1 1 2 1 4 1 68 5 136 10 205 15 6 0 13 0 20 1 12 1 21 11 20 23 0 1 0 1 0 1-1 12-12 21-23 20-21-2-41-3-61-4-54-4-109-8-164-12-1-1-3 0-4 0-6 15-18 28-32 35-1 1-1 2-1 4-2 60 5 120 18 179 8 39-15 76-53 86-37 9-76-13-86-51-16-58-25-116-26-176-1-83 11-163 37-242 1-3 1-8-1-11-23-36-19-79 10-109 28-29 71-35 108-15 3 2 8 2 13 3v-103h-206c-12 0-22-10-22-22s10-22 22-22h706c12 0 22 10 22 22 0 6-3 11-7 16z m-542 380c0-13-11-24-23-24-13 0-24 11-24 24 0 13 11 23 24 23 12 0 23-10 23-23z m-94 40c-6 77 2 152 22 225 3 15 14 23 27 23 12 0 23-8 26-19 1-5 2-11 1-16-14-61-20-123-19-185 0 0 0-1 0-1-27-5-49-27-54-55-1 10-2 19-3 28z m70-109c2 0 3 0 4 0 1-1 1-2 1-4 3-13 7-26 10-40-19 4-37 3-56-4-7 30-14 58-21 88 11-24 35-40 62-40z m-10-173c-22 2-39 20-41 41-1 26 19 47 44 47 24 0 44-20 44-44 1-25-21-46-47-44z m311-132h-205v102h205v-102z m-219 146c-2 0-3 1-6 1 7 21 7 42-2 64 14 1 26 2 39 3 71 5 143 10 215 15 24 2 44-16 45-39 1-24-17-43-41-43-83-1-167-1-250-1z" horiz-adv-x="1000" />

<glyph glyph-name="down" unicode="&#xe81a;" d="M161 177c-14 14-14 36 0 50 14 14 36 14 50 0l254-254v839c0 19 16 35 35 35s36-16 36-35v-839l253 254c14 14 37 14 50 0 14-14 14-36 0-50l-314-314c-14-13-36-13-50 0l-314 314z" horiz-adv-x="1000" />

<glyph glyph-name="down-arrow" unicode="&#xe81b;" d="M25 551c-7 7-10 15-10 24s3 18 10 25c13 13 35 13 48 0l427-427 427 427c13 13 35 13 48 0 14-14 14-35 0-49l-451-451c-13-13-35-13-48 0l-451 451z" horiz-adv-x="1000" />

<glyph glyph-name="go-out" unicode="&#xe81c;" d="M353 366c-34 27-68 53-103 79-25 19-50 38-74 58-20 14-18 30 3 40 31 14 62 29 93 44 10 4 18 4 28-2 72-39 145-79 218-119 7-4 11-3 18 0 75 43 151 85 227 126 39 22 81 36 127 34 56-2 84-34 97-79 8-30-4-54-27-72-8-7-17-11-26-16-225-107-450-216-674-324-33-16-64-12-93 10-46 36-93 72-140 108-18 14-16 29 5 39 19 10 38 18 58 28 11 5 20 5 31-1 23-13 46-25 69-38 3-1 9-2 11 0 50 27 100 55 149 82 1 1 2 2 3 3z m587 191c-4-2-7-3-10-5-24-12-49-25-73-37-5-2-11-4-17-3-8 1-14 7-15 16-2 9 3 16 11 21 20 10 40 20 60 30 3 1 5 3 8 5 0 1 0 2-1 3-11 0-23 1-34 0-31-3-61-14-88-29-69-37-137-76-205-114-2-1-4-3-8-5 15-8 29-16 43-23 8-4 13-10 12-20 0-8-5-14-13-18-52-24-104-49-156-73-9-5-17-4-24 2-12 9-24 18-35 27-5 5-9 5-15 1-56-31-113-62-169-94-10-6-19-6-29 0-24 13-47 26-71 38-3 2-7 3-10 2-9-3-18-8-29-13 4-3 7-5 9-7 37-28 73-55 109-84 17-14 34-15 55-6 106 52 213 103 320 154 119 58 239 116 359 174 28 13 32 30 16 58z m-476-203c-14 11-27 20-40 30-3 2-6 5-9 7-9 8-11 19-4 28 7 9 18 10 27 3 21-15 41-30 61-45 3-2 7-4 9-3 17 7 34 16 52 24-2 2-3 2-4 3-89 48-178 97-267 145-2 1-6 2-8 1-20-9-40-18-62-29 4-3 7-5 10-7 68-53 137-105 205-158 14-10 14-10 30 1z m-64-338c108 0 215 0 322 0 18 0 27-7 28-20 0-13-9-20-28-20-214 0-428 0-641 0-5 0-9 0-14 1-9 2-14 10-14 19 0 9 6 18 15 19 4 1 8 1 13 1 106 0 213 0 319 0z m-62-137c-51 0-102 0-153 0-4 0-7 0-10 0-10 2-17 9-17 19-1 9 6 18 15 20 4 0 8 0 11 0 102 0 205 0 307 0 1 0 3 0 5 0 13 0 22-8 22-19 0-12-9-20-23-20-52 0-105 0-157 0z m-307 491c-9 0-17 6-19 14-3 9 1 18 10 23 7 4 15 6 23 10 35 14 70 29 105 43 16 6 31-4 28-20-1-6-6-13-11-15-43-19-86-36-130-54-2-1-4-1-6-1z m833-355c11 0 22 1 33 0 13 0 21-8 21-19 0-11-7-19-20-20-23 0-46 0-69 0-13 1-20 9-20 21 1 11 9 18 21 18 0 0 1 0 1 0 11 1 22 1 33 0z" horiz-adv-x="1000" />

<glyph glyph-name="house" unicode="&#xe81d;" d="M979 377l-465 414c-4 4-9 6-14 6-5 0-10-2-14-6l-464-414c-10-8-11-22-2-31 8-9 22-10 31-2l102 91v-509c0-13 10-23 23-23h213c12 0 23 10 23 23v277h88 89v-277c0-13 9-23 22-23h213c13 0 23 10 23 23v509l102-91c9-8 23-8 31 2 9 9 8 23-1 31z m-177-429h-169v278c0 12-10 22-22 22h-111-111c-12 0-22-10-22-22v-278h-169v527l302 269 302-269v-527z" horiz-adv-x="1000" />

<glyph glyph-name="left" unicode="&#xe81e;" d="M327 689c14 14 36 14 50 0 14-14 14-36 0-50l-254-254h839c19 0 35-15 35-35s-16-35-35-35h-839l254-254c14-14 14-36 0-50-14-14-36-14-50 0l-314 314c-13 14-13 36 0 50l314 314z" horiz-adv-x="1000" />

<glyph glyph-name="left-arrow" unicode="&#xe81f;" d="M250 326c-13 13-13 35 0 48l451 451c14 14 35 14 49 0s13-35 0-48l-427-427 427-427c13-13 13-35 0-48-7-7-15-10-24-10-10 0-18 3-25 10l-451 451z" horiz-adv-x="1000" />

<glyph glyph-name="chat" unicode="&#xe820;" d="M7 687c1 6 3 12 5 19 11 41 45 69 89 73 8 1 17 2 25 2 135 0 270 0 405-1 14 0 29-1 42-5 46-11 76-46 76-94 2-80 1-161 1-242 0-5-1-9-2-15 4 0 8 0 13 0 75 0 151 0 227-1 16 0 33-2 48-8 38-15 56-45 56-85 2-69 2-138 0-207-1-58-41-95-99-96-69 0-138 0-207 0-4 0-8 0-13 0 0-4 0-7 0-11 0-24 0-49 0-74 0-10-2-18-12-21-10-4-17 0-23 8-10 12-20 24-30 35-16 19-32 38-48 57-3 3-9 6-13 6-18 2-36 0-53 3-46 8-76 43-76 90-2 69-1 138-1 207 0 3 0 7 0 11-3 0-7 0-10 0-56 0-112 0-167 1-8 0-12-3-17-8-27-33-55-66-83-99-11-12-25-13-32-1-2 4-3 9-3 14 0 27 0 54 0 82 0 4 0 7 0 12-7 1-14 2-20 4-44 12-70 41-77 86 0 2-1 3-1 5 0 84 0 169 0 253z m135-392c1 0 2-1 2-1 20 23 39 46 58 69 7 9 15 12 26 12 64 0 127 0 191 0 7 0 11 2 15 7 20 28 47 42 81 42 26 0 52 0 79 0 18 0 18 0 19 17 0 1 0 1 0 1 0 78 0 156-1 233 0 33-18 56-47 64-11 3-24 4-36 4-133 0-266 0-399 0-7 0-13 0-19 0-41-3-66-27-67-68-1-77-1-154 0-232 1-36 21-59 55-65 7-2 14-2 20-3 18-1 23-6 23-24 0-19 0-37 0-56z m493-305c0 3 0 4 0 4 0 15 0 29 0 44 0 21 6 27 27 27 78 0 156 0 234-1 34 0 60 26 60 60 0 68 0 136 0 204 0 33-26 59-59 59-128 0-256 0-384 0-33 0-59-25-59-57-1-70-1-139 0-208 0-32 26-57 58-58 14 0 28 0 41 1 14 1 23-4 31-15 16-20 33-39 51-60z m-307 681c20 0 35-3 48-13 28-20 30-55 6-79-8-8-16-15-24-22-8-7-13-16-15-26-2-12-8-16-18-16-10 1-16 8-16 20 0 13 5 25 14 35 9 8 18 16 27 24 13 13 14 29 2 40-13 11-35 10-45-3-5-6-8-14-11-21-5-12-13-17-23-14-11 3-15 13-12 25 7 30 36 51 67 50z m-1-169c12 0 21-9 21-21 0-11-9-20-21-20-12 0-21 9-21 20 0 13 9 21 21 21z m414-204c-3-31-7-64-10-96 0-1 0-3-1-4-2-8-4-16-14-16-11 0-14 9-15 17-2 25-4 50-6 75-1 14-2 28-2 43 0 10 4 19 14 24 14 7 27 0 31-14 2-9 2-19 3-29z m-1-167c0-13-9-23-23-23-13-1-23 9-23 22 0 13 10 24 23 24 13 0 23-10 23-23z" horiz-adv-x="1000" />

<glyph glyph-name="folder" unicode="&#xe821;" d="M820-18c-7-19-21-29-41-29-240 0-481 0-721 0-27 0-44 18-44 46 0 136 0 272 0 407 0 97 0 194 0 291 0 32 18 49 50 49 97 0 193 0 290 1 7 0 11-3 14-8 23-33 47-65 70-98 4-6 8-8 16-8 127 0 255-1 383 0 35 0 54-23 52-52-1-31 0-62 0-94 12 0 23 0 34 0 7 0 14 1 21 0 20 0 35-8 41-27 5-10 1-24-2-34-2-5-110-299-163-444z m-46 3c9 0 14 3 17 12 53 146 107 292 160 439 5 13 1 19-14 19-236 0-473 0-709 0-11 0-15-3-19-13-53-146-106-292-159-438-6-15-3-18 13-18 118-1 593 0 711-1z m82 503c0 4 0 7 0 10 0 28 0 56 0 84 0 16-2 19-19 19-133 0-267 0-400 0-8 0-12 2-16 8-23 33-47 65-70 99-4 5-7 7-13 7-91-1-182-1-273-1-15 0-18-3-18-17 0-197 0-394 0-591 0-3 0-5 0-8 2 3 4 6 5 10 42 114 84 229 126 344 11 29 21 36 53 36 204 0 408 0 612 0 4 0 8 0 13 0z" horiz-adv-x="1000" />

<glyph glyph-name="bus" unicode="&#xe822;" d="M645-22c-97 0-193 0-290 0-4-19-11-36-24-51-27-30-62-42-102-33-40 8-66 34-78 73-2 9-6 11-15 11-19 0-39 0-59 0-24 1-42 12-51 35-9 22-4 43 12 62 3 4 6 10 6 15 0 92 0 183 0 275 0 74 48 136 118 153 11 3 23 5 35 5 219 0 438 0 658 0 54 0 97-40 101-95 0-5 0-10 0-15 0-107 0-215 0-323 0-6 1-11 6-16 17-18 21-39 11-61-8-23-26-34-50-35-21 0-42 0-64 0-5 0-7-1-9-6-13-50-53-81-103-80-48 0-88 31-101 81 0 1-1 3-1 5z m273 462c-1 3-1 4-1 5-10 27-34 43-66 43-216 0-432 0-647 0-7 0-13 0-20-1-61-9-105-59-105-122 0-88 0-176 0-264 0-3 0-6 1-9 2 0 4-1 7-1 38 0 78 0 116 0 4 0 7 1 11 2 60 23 122-10 139-72 1-6 4-8 10-8 91 0 182 0 273 0 7 0 9 2 11 8 17 62 78 94 139 73 3-2 7-3 10-3 39 0 79 0 118 0 2 0 4 1 6 1 0 45 0 89 0 135-16 0-31 0-46 0-25 0-41 16-41 41 0 43 0 87 0 130 0 26 17 42 42 42 14 0 28 0 43 0z m-170-514c39 0 70 32 70 70 0 39-32 70-70 69-39 0-69-31-69-70 0-38 31-69 69-69z m-496 0c38 0 70 31 70 70 0 38-31 69-70 69-38 1-70-30-70-69 0-38 31-70 70-70z m668 479c-15 0-30 0-46-1-2 0-5-5-5-8-1-14-1-28-1-42 0-27 0-55 0-83 0-4 0-9 6-10 16 0 31 0 46 0 0 49 0 96 0 144z m-757-349c-29 0-58 0-88 0-11-1-18-10-18-22 0-12 8-20 20-21 22 0 44 0 65 0 2 0 6 3 7 5 5 12 9 24 14 38z m674 0c4-14 9-26 14-38 0-2 3-4 5-4 23-1 47-1 70 0 11 0 17 10 17 21 0 11-7 21-18 21-30 0-59 0-88 0z m-385 171c-96 0-191 0-286 0-30 0-45 15-45 45 0 26 0 52 0 78 0 54 35 90 89 90 176 0 352 0 528 0 28 0 44-16 44-44 0-42 0-84 0-126 0-28-16-43-43-43-96 0-192 0-287 0z m-19 177c-46 0-90 0-136 0 0-47 0-94 0-142 46 0 91 0 136 0 0 48 0 95 0 142z m172 0c-46 0-90 0-136 0 0-3 0-6 0-8 0-42 0-83-1-125 0-8 3-10 11-10 39 0 78 0 117 0 3 0 6 1 9 1 0 47 0 94 0 142z m37 1c0-48 0-95 0-143 2 0 3-1 4-1 31 0 62 0 93 0 8 0 8 5 8 11 0 41 0 82 0 122 0 8-2 11-11 11-22 0-45 0-68 0-8 0-17 0-26 0z m-381 0c-19 0-37 0-55 0-29 0-50-21-50-51-1-27 0-55-1-82 0-9 3-11 12-11 28 1 57 0 86 0 2 0 5 1 8 1 0 48 0 95 0 143z m604-260c0 3 0 6 0 9 2 9 9 15 17 14 9 0 16-4 17-13 1-7 1-16 0-24-1-8-9-13-17-13-9 0-15 6-17 15 0 4 0 8 0 12z m-117-101c26 0 48-21 48-48 1-26-21-48-48-48-26 0-48 21-48 48 0 26 22 48 48 48z m13-49c0 7-5 13-12 14-8 0-14-6-14-13 0-7 6-13 13-13 7 0 13 5 13 12z m-509-47c-26 0-48 21-48 47 0 27 21 49 48 49 26 0 48-22 48-48 0-27-22-48-48-48z m13 48c0 7-6 12-13 13-7 0-13-6-13-13 0-7 6-14 13-13 7 0 13 6 13 13z" horiz-adv-x="1000" />

<glyph glyph-name="camera" unicode="&#xe823;" d="M500 448c-81 0-147-66-147-147 0-81 66-147 147-147 81 0 147 66 147 147 0 81-66 147-147 147z m393 147h-118c-16 0-34 13-39 28l-30 92c-5 15-23 28-39 28h-334c-16 0-33-13-38-28l-31-92c-5-15-23-28-39-28h-118c-53 0-98-44-98-98v-442c0-53 44-98 98-98h786c54 0 98 45 98 99v441c0 54-44 98-98 98z m-393-539c-135 0-245 109-245 245 0 135 110 245 245 245 136 0 245-110 245-245 0-136-109-245-245-245z m358 373c-19 0-34 15-34 34 0 19 15 34 34 34 19 0 35-15 35-34 0-19-16-34-35-34z" horiz-adv-x="1000" />

<glyph glyph-name="hotel" unicode="&#xe824;" d="M564 556c5 0 9 0 13 0 114 0 228 0 342 0 21 0 25-4 25-25 0-184 0-368 0-553 0-7 2-13 7-18 15-19 23-41 25-65 0-15-5-21-21-21-69 0-138 0-208 0-101 0-202 0-303 0-19 0-25 6-23 26 1 6 2 12 4 18 1 6 3 12 6 19-5 0-9 0-12 0-124 0-247 0-370 0-20 0-25 5-25 25 0 280 0 560 0 840 0 19 5 24 24 24 164 0 328 0 492 0 19 0 23-5 23-24 0-77 0-155 0-233 1-4 1-8 1-13z m-508-587c5 0 9 0 13 0 121 0 241 0 361 0 15 0 29 0 39 12 3 3 8 4 10 7 3 2 5 6 5 10 0 36 14 66 42 89 4 4 6 8 6 14 0 228 0 455 0 683 0 3 0 6 0 10-159 0-317 0-475 0-1-275-1-549-1-825z m508 139c7 1 13 3 19 3 7 0 10 4 14 10 11 15 22 32 35 45 49 44 116 53 175 24 57-27 92-86 89-151-1-13-4-27-6-41 7-2 14-4 22-7 0 178 0 355 0 533-116 0-232 0-348 0 0-139 0-277 0-416z m377-202c-2 14-8 26-17 36-25 27-62 35-95 19-12-6-21-4-26 5-4 9 0 18 13 23 9 5 19 8 29 10 8 1 11 4 14 12 16 49-1 104-41 137-42 33-99 38-145 10-20-12-36-29-47-49 1-1 2-2 2-2 2-1 5-1 7-2 30-13 52-34 64-65 3-9 0-17-8-21-8-4-16 0-21 9-1 2-2 3-3 5-22 51-86 64-126 25-17-15-25-34-24-58 5 1 8 1 12 1 21 1 40-4 58-15 8-4 10-13 6-20-4-8-12-11-20-7-3 0-5 1-7 2-14 8-28 9-43 8-33-3-65-32-67-62 161-1 323-1 485-1z m-726 776c0-9 0-19 0-29-1-11-6-17-17-17-21-1-41-1-61 0-11 0-17 5-17 16-1 21-1 41 0 62 0 10 6 16 17 17 20 0 41 0 61 0 11-1 17-7 17-18 0-10 0-21 0-31z m-33-14c0 11 0 20 0 30-10 0-20 0-30 0 0-10 0-20 0-30 11 0 20 0 30 0z m-15-413c-10 0-20 0-29 0-12 0-18 6-18 17-1 20-1 41 0 61 0 11 6 17 17 17 20 0 40 0 60 0 12 0 18-6 18-18 0-20 0-39 0-59 0-12-6-18-19-18-10 0-19 0-29 0z m15 32c0 11 0 21 0 31-10 0-20 0-30 0 0-11 0-21 0-31 11 0 20 0 30 0z m111 349c-9 0-19-1-29 0-11 0-17 5-17 17-1 20-1 40 0 60 0 11 6 17 17 18 20 0 40 0 60 0 12 0 17-7 17-18 1-20 1-40 0-59 0-13-6-18-18-18-10-1-20 0-30 0z m16 62c-10 0-20 0-30 0 0-10 0-20 0-30 11 0 20 0 30 0 0 10 0 20 0 30z m-94-142c0-10 0-19 0-29-1-12-6-18-18-18-20-1-40-1-59 0-12 0-18 6-18 18-1 20-1 39 0 59 0 12 6 18 18 18 19 0 39 0 59 0 12 0 18-6 18-19 0-10 0-19 0-29z m-63 16c0-11 0-21 0-31 11 0 21 0 30 0 0 11 0 20 0 31-10 0-19 0-30 0z m142-317c-10 0-20 0-29 0-12 0-18 6-18 17-1 20-1 40 0 60 0 12 6 18 17 18 20 0 40 0 60 0 11 0 17-6 18-17 0-20 0-41 0-61-1-11-7-17-19-17-9 0-19 0-29 0z m-15 63c0-11 0-21 0-31 10 0 20 0 30 0 0 11 0 20 0 31-10 0-20 0-30 0z m141 318c-10 0-19-1-29 0-11 0-17 6-17 17-1 20-1 40 0 60 0 11 6 17 17 18 20 0 40 0 60 0 12-1 17-7 17-18 1-20 1-40 0-59 0-12-6-18-18-18-10-1-20 0-30 0z m-14 62c0-10 0-20 0-30 10 0 20 0 30 0 0 10 0 20 0 30-10 0-19 0-30 0z m-239-221c11 0 21 0 31 0 10-1 16-6 16-17 1-20 1-41 0-62 0-10-6-16-16-16-21 0-41 0-61 0-11 0-17 6-17 16-1 21-1 42 0 63 0 11 6 16 17 16 10 0 20 0 30 0z m-15-63c10 0 20 0 30 0 0 11 0 20 0 30-10 0-20 0-30 0 0-10 0-20 0-30z m316-112c0-10 0-19 0-29 0-12-6-18-17-18-20 0-40 0-60 0-11 0-17 6-18 17 0 20 0 40 0 61 1 11 6 17 17 17 21 0 41 0 61 0 11 0 17-6 17-18 1-9 0-20 0-30z m-62-14c10 0 20 0 30 0 0 10 0 20 0 30-10 0-20 0-30 0 0-11 0-20 0-30z m-33 268c0 10 0 20 0 30 1 11 6 17 17 18 21 0 41 0 62 0 10-1 16-7 16-17 1-21 1-41 0-61 0-11-5-17-16-17-21-1-42-1-63 0-10 0-15 6-16 17 0 10 0 20 0 30z m63-15c0 11 0 20 0 31-10 0-20 0-30 0 0-11 0-21 0-31 10 0 20 0 30 0z m-142-64c10 0 20 0 29 0 12 0 18-6 18-17 1-20 1-41 0-61 0-11-6-17-18-17-19 0-39 0-59 0-11 0-17 6-18 17 0 20 0 41 0 61 1 11 7 16 19 17 0 0 1 0 2 0 9 0 18 0 27 0z m15-33c-10 0-20 0-30 0 0-10 0-20 0-30 10 0 20 0 30 0 0 10 0 20 0 30z m112 33c10 0 20 0 30 0 11-1 17-6 17-18 0-20 0-40 0-60 0-11-6-17-17-17-20 0-40 0-61 0-10 0-16 6-17 17 0 20 0 40 0 60 1 12 6 17 18 18 10 0 20 0 30 0z m-15-63c10 0 20 0 30 0 0 11 0 20 0 30-11 0-21 0-30 0 0-10 0-20 0-30z m268-175c-9 0-19 0-29 0-12 1-18 6-18 18 0 20 0 40 0 59 0 12 6 18 18 18 20 0 40 0 60 0 11 0 17-6 17-17 1-20 1-40 0-61 0-11-6-16-18-17-10 0-20 0-30 0z m-15 32c11 0 21 0 31 0 0 11 0 21 0 31-11 0-21 0-31 0 0-10 0-20 0-31z m15 95c-9 0-19 0-29 0-12 0-18 6-18 18 0 20 0 39 0 59 0 12 6 18 18 18 20 0 39 0 59 0 11 0 18-6 18-17 1-21 1-41 0-61 0-11-6-17-17-17-10 0-21 0-31 0z m16 32c0 11 0 21 0 31-11 0-21 0-31 0 0-11 0-21 0-31 11 0 20 0 31 0z m64 17c0 9 0 19 0 29 0 11 6 17 17 17 20 0 41 0 61 0 10 0 16-6 17-17 0-20 0-41 0-61-1-11-6-17-17-17-20 0-41 0-62 0-10 0-16 6-16 17 0 11 0 21 0 32z m62-17c0 11 0 21 0 31-10 0-20 0-30 0 0-11 0-21 0-31 11 0 20 0 30 0z m-62-111c0 10 0 20 0 30 0 11 6 16 16 17 21 0 42 0 62 0 11-1 16-7 17-17 0-21 0-41 0-61-1-11-7-17-18-17-20 0-40 0-59 0-12 0-18 6-18 18 0 10 0 20 0 30 0 0 0 0 0 0z m32-16c11 0 20 0 30 0 0 10 0 20 0 31-10 0-20 0-30 0 0-11 0-20 0-31z m-444 314c-1 13-7 19-19 19-19 0-39 0-58 0-12 0-18-6-18-19-1-19-1-38 0-57 0-13 6-19 19-20 9 0 18 0 27 0 10 0 20 0 30 0 13 1 18 7 19 19 0 20 0 39 0 58z m-33-44h-30v31h30v-31z" horiz-adv-x="1000" />

<glyph glyph-name="pasca" unicode="&#xe825;" d="M822-68c0-15 0-29 0-42 0-17-5-22-22-22-253 0-507 0-760 0-17 0-22 5-22 21 0 275 0 551 0 826 0 15 6 21 21 21 22 0 45 0 67 0 7 0 10 1 10 9 2 20 8 39 18 57 23 40 66 40 88 1 9-16 13-34 18-51 2-4 2-10 2-15 12 0 23 0 32 0 5 17 8 34 14 50 5 11 12 23 21 31 21 21 47 18 66-4 15-18 22-39 26-61 1-5 1-11 2-16 11 0 22 0 33 0 2 9 3 19 6 29 4 13 8 25 15 37 22 39 64 39 87 0 11-18 17-37 19-58 0-7 2-10 10-9 8 0 16 0 23 0 4 17 8 34 13 50 4 10 10 20 17 28 20 24 50 24 71 0 15-18 22-40 26-63 0-5 1-10 2-15 24 0 47 0 71 0 20 0 23-3 27-23 53-252 106-505 158-757 4-17-3-25-21-25-42 0-84 0-127 0-3 1-7 1-11 1z m-32 578c-247 0-493 0-739 0 0-204 0-407 0-609 247 0 493 0 739 0 0 203 0 405 0 609z m-642 193c1-19 5-36 16-51 4-6 10-10 17-12 9-4 15-10 14-18-2-10-10-16-20-14-14 1-24 9-33 19-16 20-23 44-26 69-1 2-4 7-6 7-19 1-39 1-59 1 0-55 0-108 0-160 247 0 492 0 738 0 0 53 0 106 0 159-53 0-106 0-158 0 0-17 5-39 15-51 4-5 11-10 17-13 10-4 15-9 14-18-2-9-9-15-19-13-8 1-17 5-24 10-17 12-25 31-30 51-3 11-5 23-7 34-43 0-85 0-127 0 1-19 5-36 15-51 4-5 11-10 18-13 9-4 15-9 13-18-1-9-9-15-19-14-13 2-24 9-32 19-17 20-24 43-26 68-1 8-4 10-12 10-36-1-72 0-108 0-4 0-7 0-12 0 4-14 6-26 10-37 5-14 12-27 29-29 7-1 11-9 9-16-1-5-6-11-11-13-5-2-13-1-18 1-20 8-31 24-38 43-6 16-9 33-14 50-41 0-83 0-126 0z m676-150c0 0-1 0-1 0 0-196 0-392 0-589 41 0 82 0 124 0-41 197-82 393-123 589z m-132 184c-2 20-6 40-19 56-8 9-16 10-23 1-14-17-18-36-20-57 21 0 41 0 62 0z m-482 0c-2 23-9 44-19 55-8 10-16 11-24 0-13-16-17-35-19-55 21 0 41 0 62 0z m161 0c-3 20-7 40-20 56-8 9-15 9-22 1-14-16-18-36-20-57 21 0 41 0 62 0z m160 0c-2 20-6 39-19 56-8 10-16 10-23 0-14-16-18-36-20-56 22 0 42 0 62 0z m-352-419c-10 0-21 0-31 0-11 0-17 6-17 16 0 22 0 43 0 64 0 10 7 16 17 16 21 0 41 0 61 0 11 0 18-6 18-17 1-20 1-41 0-61 0-12-7-18-18-18-1 0-2 0-2 0-10 0-19 0-28 0z m15 32c0 11 0 21 0 31-10 0-20 0-30 0 0-10 0-20 0-31 10 0 20 0 30 0z m307-32c-10 0-20 0-30 0-12 0-19 5-19 17 0 21 0 41 0 62 0 11 7 17 19 17 19 1 39 1 59 0 12 0 18-6 18-17 1-21 1-41 0-61 0-12-6-18-19-18-9 0-19 0-28 0z m-16 63c0-10 0-20 0-30 11 0 21 0 31 0 0 10 0 20 0 30-11 0-21 0-31 0z m-194-16c0 11 0 21 0 31 1 12 7 18 18 18 20 1 40 1 60 0 12 0 18-6 18-18 1-20 1-40 0-61 0-11-6-17-17-17-21 0-41 0-62 0-10 0-17 6-17 18 0 10 0 20 0 29z m64 16c-11 0-21 0-31 0 0-10 0-20 0-30 11 0 21 0 31 0 0 10 0 20 0 30z m306-63c-10 0-20 0-30 0-12 0-18 6-18 18 0 20 0 40 0 60 0 12 6 18 18 18 20 0 40 0 60 0 12 0 18-6 18-18 1-20 1-40 0-60 0-12-6-18-18-18-10 0-20 0-30 0z m15 32c0 11 0 21 0 31-10 0-20 0-30 0 0-10 0-20 0-31 10 0 20 0 30 0z m-176-354c-10 0-19 0-29 0-12 1-19 6-19 18 0 20 0 41 0 61 0 12 7 17 18 18 20 0 40 0 60 0 12-1 18-6 18-19 1-20 1-40 0-59 0-13-6-19-18-19-10 0-20 0-30 0z m16 33c0 11 0 21 0 31-11 0-21 0-31 0 0-11 0-21 0-31 10 0 21 0 31 0z m-337-33c-10 0-20 0-30 0-12 1-18 6-18 18-1 20-1 41 0 61 0 12 6 17 17 18 21 0 41 0 61 0 11 0 18-6 18-17 1-21 0-41 0-62 0-12-7-17-18-18-11 0-20 0-30 0z m-16 33c11 0 21 0 31 0 0 11 0 21 0 31-10 0-20 0-31 0 0-11 0-21 0-31z m-32 176c0 10-1 19 0 29 0 13 5 19 18 19 20 1 39 1 59 0 13 0 19-6 19-19 0-19 0-39 0-58 0-13-6-19-18-19-20-1-40-1-60 0-12 0-18 6-18 18-1 11 0 21 0 30z m63-15c0 11 0 21 0 31-11 0-21 0-31 0 0-11 0-21 0-31 11 0 21 0 31 0z m307 64c10 0 19 0 28 0 13-1 19-6 19-19 1-20 1-40 0-60 0-12-6-18-17-18-21 0-41 0-61 0-12 0-18 6-18 18 0 20 0 40 0 60 0 13 6 18 19 19 10 0 20 0 30 0z m-16-33c0-11 0-21 0-31 11 0 21 0 31 0 0 11 0 21 0 31-11 0-21 0-31 0z m-97-17c0-10 0-20 0-30-1-10-6-16-16-17-22 0-43 0-65 0-10 0-15 7-16 17 0 21 0 42 0 63 1 10 7 16 17 16 21 1 42 1 63 0 11 0 16-6 17-17 0-11 0-21 0-32z m-33 17c-11 0-21 0-31 0 0-11 0-21 0-31 11 0 21 0 31 0 0 10 0 20 0 31z m258-16c0 10 0 20 0 30 0 12 6 18 17 18 21 1 41 1 62 0 11 0 17-6 17-17 1-20 0-41 0-61 0-11-6-18-17-18-21 0-41 0-62 0-12 1-17 7-17 18 0 1 0 2 0 2 0 9 0 19 0 28z m33 16c0-11 0-21 0-31 10 0 20 0 30 0 0 11 0 21 0 31-10 0-20 0-30 0z m-258-177c0-10 0-20 0-30-1-11-6-17-17-18-21 0-41 0-62 0-11 1-17 7-17 17-1 21-1 42 0 63 0 10 6 16 17 17 20 0 41 0 61 0 12-1 18-7 18-19 0-10 0-20 0-30z m-64-15c11 0 20 0 31 0 0 11 0 21 0 31-11 0-21 0-31 0 0-11 0-20 0-31z m289 16c0 10 0 20 0 30 0 11 6 17 17 18 21 0 42 0 62 0 11-1 17-7 17-18 1-20 1-41 0-61 0-11-6-18-17-18-21 0-41 0-62 0-11 0-17 7-17 18 0 10 0 21 0 31z m64 15c-11 0-21 0-31 0 0-11 0-20 0-31 10 0 20 0 31 0 0 11 0 20 0 31z" horiz-adv-x="1000" />

<glyph glyph-name="othet" unicode="&#xe826;" d="M125 363c4 15 9 30 19 43 25 34 70 47 109 31 39-15 64-56 59-96-5-43-37-77-78-83-50-8-97 25-107 75-1 2-1 3-2 5 0 8 0 16 0 25z m469-13c0-52-43-94-95-94-51 0-93 43-93 94 0 52 43 94 95 94 51 0 93-43 93-94z m187 94c52 0 94-43 94-94 0-52-43-94-94-94-51 0-93 43-93 94 0 52 42 94 93 94z" horiz-adv-x="1000" />

<glyph glyph-name="pln" unicode="&#xe827;" d="M311 538l-22-70c-23 2-48 8-77 20-33 13-74-7-108-31v81c48 25 94 30 133 14 29-11 52-15 74-14z m586-4v-79c-41 25-86 43-119 33-16-5-31-9-44-12l28 69-174-73c-10 2-19 5-28 8-17 5-32 10-51 13-21 3-39 2-57 0l32 71c11 0 22-1 34-2 25-4 45-10 62-15 42-13 77-24 177 7 40 13 86 6 140-20z m-653-209l-21-67c-3 1-7 3-11 5-33 13-74-7-108-31v81c48 25 94 30 133 14 3-1 5-2 7-2z m311-14l-10-52c-12 4-23 7-36 8-21 3-40 3-57 1l103 43z m342-2v-79c-41 24-86 43-119 33-62-20-105-25-139-24l28 70c23 2 52 8 90 20 40 12 86 6 140-20z m-376-169l-14-69c-45 6-78-2-113-11-50-12-103-26-182 6-33 13-74-6-108-30v81c48 25 94 30 133 14 59-24 95-15 140-3 38 9 81 20 141 12 1 0 2 0 3 0z m376-27v-80c-41 25-86 43-119 33-115-36-166-24-212-10l26 65c37-11 74-17 165 11 40 13 86 6 140-19z" horiz-adv-x="1000" />

<glyph glyph-name="pper" unicode="&#xe828;" d="M286-88c0 11 0 23 0 34 0 35 0 70 1 106 0 9-3 13-13 13-47 0-93 0-142 0 3-4 5-6 7-8 17-18 35-35 52-53 9-9 10-18 3-24-6-7-15-6-24 2-23 24-47 47-70 71-14 14-21 30-21 50 0 197 0 394 0 592 0 23 15 38 38 38 23 0 46 0 70 0 0 22 0 43 0 63 0 6 0 12 1 18 2 16 15 27 31 28 4 0 7 0 11 0 216 0 431 0 647 0 31 0 43-12 43-43 0-202 0-403 0-605 0-2 0-5 0-8 0-9-7-16-15-16-8 0-15 7-15 17 0 3 0 6 0 10 0 200 0 400 0 600 0 15 0 15-15 15-214 0-429 0-643 0-15 0-15 0-15-15 0-21 0-42 0-64 5 0 9 0 14 0 179 0 359 0 538 0 9 0 19-2 27-6 11-5 17-16 17-29 0-16 0-31 0-46 0-11-6-17-15-17-10 0-15 6-15 17-1 13-1 26 0 39 0 9-3 12-12 12-83 0-167 0-250 0-132 0-265 0-398 0-13 0-13 0-13-13 0-194 0-388 0-582 0-4 0-8 0-12 4-1 8-1 12-1 50 0 101 0 151 0 30 0 43-13 43-43 0-50 0-100 0-150 0-4 0-8 0-13 5-1 8-1 13-1 147 0 294 0 441 0 10 0 13 3 13 13 0 223 0 445 0 667 0 4-1 8 0 12 1 7 6 12 14 12 8 1 13-3 15-11 1-4 1-9 1-14 0-185 0-370 0-555 0-4 0-9 0-14 24 0 48-1 71 0 2 0 5 6 6 10 0 28 0 57 0 85 0 3 0 5 0 8 0 12 6 19 15 19 10 0 15-7 15-19 0-32 0-64 0-95 0-24-14-38-38-38-22-1-45 0-69 0 0-6 0-10 0-15 0-18 0-37 0-56 0-25-15-39-39-39-150 0-299 0-449 0-20 0-37 7-51 21-15 15-29 29-44 44-8 9-9 17-3 24 7 7 16 6 24-3 11-10 22-22 32-33 1 0 2 1 3 1z m171 270c56 0 111 0 167 0 3 0 7 0 10 0 9-1 13-7 13-15 0-7-4-13-12-14-3-1-7-1-10-1-112 0-224 0-336 0-3 0-5 0-8 0-9 1-15 7-15 15 0 8 7 14 15 15 3 0 6 0 9 0 55 0 111 0 167 0z m0 193c55 0 111 0 167 0 3 0 7 0 10 0 8-1 13-7 13-15 0-7-4-13-12-14-4-1-7-1-11-1-111 0-223 0-334 0-16 0-24 5-24 15 0 10 8 15 24 15 55 0 111 0 167 0z m0-96c56 0 112 0 168 0 3 0 6 0 9-1 8-1 13-6 13-14 0-8-4-13-12-15-4 0-7 0-11 0-111 0-223 0-334 0-16 0-24 5-24 15 0 10 8 15 24 15 55 0 111 0 167 0z m0 289c56 0 113 0 169 0 4 0 9 1 11-1 4-4 10-10 10-14-1-5-7-10-11-14-3-2-7-1-11-1-112 0-224 0-336 0-2 0-5 0-7 0-9 1-16 7-16 15 0 8 7 15 16 15 22 0 43 0 65 0 37 0 73 0 110 0z m0-126c-56 0-111 0-167 0-3 0-7-1-10 0-9 1-13 6-13 14 0 9 5 14 13 15 3 1 6 0 9 0 112 0 224 0 336 0 2 0 5 0 7 0 9 0 15-6 16-14 0-8-7-15-16-15-10-1-20 0-30 0-49 0-97 0-145 0z m68-356c35 0 70 0 105 0 10 0 17-6 18-15 0-9-7-15-18-15-3-1-6 0-8 0-31 0-63 0-94 0-34 0-69 0-103 0-4 0-8 0-11 0-8 2-12 7-12 15 0 8 5 13 13 14 3 1 7 1 10 1 33 0 66 0 100 0z" horiz-adv-x="1000" />

<glyph glyph-name="edit" unicode="&#xe829;" d="M927 653c0-25-8-47-25-65-10-10-20-20-30-30-116-116-231-231-346-346-6-7-14-11-23-14-55-15-110-30-165-45-2-1-5-2-7-2-16-3-30 10-26 26 16 60 33 120 50 179 1 5 4 9 8 13 125 125 249 250 374 374 41 41 99 41 140 0 11-11 22-21 32-33 13-17 18-36 18-57z m-210 8c-103-103-206-205-308-308 32-32 65-65 98-98 102 103 205 206 308 308-33 33-66 66-98 98z m31 33c33-33 67-66 100-100 7 8 16 16 24 25 18 20 17 50-1 70-9 10-19 20-29 29-19 17-47 18-67 3-10-8-19-18-27-27z m-284-462c-26 27-52 53-78 78-10-35-20-70-30-108 37 11 73 21 108 30z m421 40v-225c0-67-55-121-121-121h-570c-67 0-121 54-121 121v519c0 67 54 122 121 122h202c12 0 21-10 21-22 0-5-2-11-6-14-4-4-9-7-15-7h-202c-44 0-79-35-79-79v-519c0-43 35-79 79-79h570c43 0 79 36 79 79v225c0 12 9 21 21 21 6 0 11-2 15-6 3-4 6-9 6-15z" horiz-adv-x="1000" />

<glyph glyph-name="password-1" unicode="&#xe82a;" d="M451 159l-13-117c-1-6 1-12 5-16 4-5 10-7 15-7h83c6 0 12 2 16 7s6 10 5 16l-13 117c21 16 34 40 34 67 0 46-37 83-83 83s-83-37-83-83c0-27 13-51 34-67z m49 108c23 0 41-18 41-41 0-16-9-30-23-37-8-4-13-13-12-21l12-108h-36l12 108c1 9-4 17-12 21-14 7-24 21-24 37 1 23 19 41 42 41z m352 207h-62v83c0 160-130 290-290 290s-290-130-290-290v-83h-62c-12 0-21-9-21-20v-518c0-46 37-83 83-83h580c46 0 83 37 83 83v518c0 11-9 20-21 20z m-600 83c0 137 111 249 248 249s249-112 249-249v-83h-42v83c0 114-93 207-207 207s-207-93-207-207v-83h-41v83z m414 0v-83h-332v83c0 91 75 166 166 166s166-75 166-166z m165-621c0-23-18-42-41-42h-580c-23 0-41 19-41 42v497h662v-497z" horiz-adv-x="1000" />

<glyph glyph-name="no-restaurant" unicode="&#xe82b;" d="M278-136c-11 5-24 7-34 14-24 16-36 40-34 69 2 47 4 95 6 143 4 74 7 147 11 221 1 36 3 73 5 109 0 7-1 10-8 12-60 28-96 75-98 143-2 81 0 162 0 243 0 13 5 18 19 18 20 0 39 0 59 0 17 0 21-5 21-21 0-63 0-126 0-189 0-3 0-7 0-12 6 0 11 0 18 0 0 4 0 8 0 11 0 63 0 126 0 188 0 18 4 23 22 23 15 0 30 0 45 0 23 0 26-3 26-26 0-61 0-123 0-184 0-4 0-8 0-12 6 0 11 0 17 0 0 4 0 7 0 11 0 63 0 125 0 188 0 19 4 23 23 23 19 0 39 0 58 0 13 0 19-6 19-19 0-79 1-158-1-237-1-70-36-119-99-149-2 0-4-1-4-1 0-21-1-40 0-60 5-104 10-207 15-311 1-37 4-75 5-112 1-36-20-66-52-78-6-2-11-4-16-5-8 0-15 0-23 0z m-122 941c0-5 0-8 0-12 0-68 0-137 0-206 0-64 33-110 94-131 11-4 14-8 14-19-3-64-6-128-9-192-5-99-10-197-15-297-1-30 21-53 50-53 28 0 50 24 49 55-2 31-4 63-5 94-7 131-13 261-19 392 0 12 3 17 14 20 59 20 94 67 94 130 0 69 0 139 0 209 0 3 0 6 0 10-14 0-26 0-39 0 0-5 0-8 0-12 0-63 0-126 0-188 0-18-4-23-22-23-12 0-23 0-35 0-17 0-22 5-22 23 0 63 0 126 0 189 0 4 0 7 0 11-11 0-21 0-31 0 0-5 0-8 0-12 0-63 0-127 0-190 0-15-5-20-21-20-12 0-24 0-37 0-16 0-21 5-21 21 0 63 0 127 0 190 0 4 0 7 0 11-14 0-26 0-39 0z m543-941c-6 2-13 4-20 7-31 13-49 42-48 77 3 58 6 116 9 175 3 73 7 147 10 220 1 26 3 52 4 78 0 3-2 8-5 10-50 22-77 62-91 112-18 68-16 136 17 199 21 42 52 74 97 88 50 15 94 2 132-31 39-35 60-80 68-131 8-56 2-111-23-162-16-34-41-59-76-75-2-1-5-6-5-9 3-55 5-110 8-166 4-74 7-148 11-221 1-28 3-56 4-84 1-44-23-75-66-85-1-1-2-1-3-2-7 0-15 0-23 0z m-25 326l0 0c-4-81-8-162-12-244-1-28 20-51 48-51 28-1 50 22 50 50 0 12-1 24-2 37-3 74-7 148-10 222-4 77-8 155-11 233-1 10 3 16 12 18 34 10 57 33 72 64 23 46 27 96 19 146-5 39-21 75-49 104-46 48-112 49-159 1-13-14-24-30-33-47-27-56-27-115-10-174 13-45 38-80 86-95 8-2 11-9 10-18-4-82-7-164-11-246z m-595-276c-4 0-8 2-11 5-5 5-5 15 0 21l842 842c6 6 16 6 21 0 6-6 6-16 0-22l-841-842c-3-3-7-4-11-4z" horiz-adv-x="1000" />

<glyph glyph-name="right" unicode="&#xe82c;" d="M987 375c13-14 13-36 0-50l-314-314c-14-14-36-14-50 0-14 14-14 36 0 50l254 254h-838c-20 0-36 16-36 35s16 35 36 35h838l-254 254c-14 14-14 36 0 50 14 14 36 14 50 0l314-314z" horiz-adv-x="1000" />

<glyph glyph-name="right-arrow" unicode="&#xe82d;" d="M299-125c-7-7-15-10-24-10s-18 3-25 10c-13 13-13 35 0 48l427 427-427 427c-13 13-13 35 0 48 14 14 35 14 49 0l451-451c13-13 13-35 0-48l-451-451z" horiz-adv-x="1000" />

<glyph glyph-name="marker" unicode="&#xe82e;" d="M493-130c-34 28-69 56-101 86-77 71-145 151-198 242-30 51-56 104-70 162-42 183 58 373 233 443 36 14 72 23 111 26 2 0 4 1 6 1 17 0 35 0 52 0 17-2 33-4 49-7 152-28 279-158 304-310 15-88 0-171-39-251-52-108-124-201-209-285-35-34-73-65-109-98-5-3-10-6-14-9-5 0-10 0-15 0z m7 60c31 28 60 54 88 81 91 89 168 187 217 305 28 70 34 141 15 213-51 188-243 290-428 229-156-52-251-221-215-382 10-47 30-89 52-130 49-90 114-169 188-240 27-25 55-49 83-76z m-244 512c0 135 110 244 245 244 135-1 244-111 243-246 0-134-110-244-244-244-135 1-245 111-244 246z m54-1c0-105 86-191 191-190 105 0 189 86 189 191 0 104-86 189-190 189-105 0-190-85-190-190z" horiz-adv-x="1000" />

<glyph glyph-name="eyes" unicode="&#xe82f;" d="M41 358c21 25 40 52 62 75 58 63 124 117 200 157 66 35 137 55 212 52 73-3 139-27 201-63 93-53 169-125 235-209 10-13 11-26 0-39-75-96-162-176-273-230-58-28-119-44-185-43-68 1-131 21-190 52-102 54-184 130-254 221-3 3-5 8-8 12 0 5 0 10 0 15z m850-9c-58 67-120 126-194 171-45 28-93 48-146 57-71 12-137-2-201-32-72-33-133-82-188-138-18-18-35-37-52-56 1-2 1-3 2-3 64-76 137-142 226-188 101-52 203-56 307-8 65 30 122 72 174 122 24 24 48 50 72 75z m-210 1c0-100-82-182-182-181-100 0-181 82-181 181 1 100 82 182 183 182 99-1 180-83 180-182z m-60 0c0 67-54 121-121 121-67 0-121-54-121-121 0-67 54-121 121-121 67 0 121 54 121 121z" horiz-adv-x="1000" />

<glyph glyph-name="star" unicode="&#xe830;" d="M563 780l76-215c9-25 33-43 60-44l226-7c62-2 87-80 39-119l-180-142c-21-17-30-44-23-70l63-222c17-60-50-108-101-73l-185 128c-23 15-53 15-75 0l-185-128c-51-35-119 13-102 73l63 222c8 25-1 53-22 70l-180 142c-49 39-23 117 39 119l225 7c28 1 52 19 61 44l76 215c20 58 104 58 125 0z" horiz-adv-x="1000" />

<glyph glyph-name="restaurant" unicode="&#xe831;" d="M278-136c-11 5-24 7-34 14-24 16-36 40-34 69 2 47 4 95 6 143 4 74 7 147 11 221 1 36 3 73 5 109 0 7-1 10-8 12-60 28-96 75-98 143-2 81 0 162 0 243 0 13 5 18 19 18 20 0 39 0 59 0 17 0 21-5 21-21 0-63 0-126 0-189 0-3 0-7 0-12 6 0 11 0 18 0 0 4 0 8 0 11 0 63 0 126 0 188 0 18 4 23 22 23 15 0 30 0 45 0 23 0 26-3 26-26 0-61 0-123 0-184 0-4 0-8 0-12 6 0 11 0 17 0 0 4 0 7 0 11 0 63 0 125 0 188 0 19 4 23 23 23 19 0 39 0 58 0 13 0 19-6 19-19 0-79 1-158-1-237-1-70-36-119-99-149-2 0-4-1-4-1 0-21-1-40 0-60 5-104 10-207 15-311 1-37 4-75 5-112 1-36-20-66-52-78-6-2-11-4-16-5-8 0-15 0-23 0z m-122 941c0-5 0-8 0-12 0-68 0-137 0-206 0-64 33-110 94-131 11-4 14-8 14-19-3-64-6-128-9-192-5-99-10-197-15-297-1-30 21-53 50-53 28 0 50 24 49 55-2 31-4 63-5 94-7 131-13 261-19 392 0 12 3 17 14 20 59 20 94 67 94 130 0 69 0 139 0 209 0 3 0 6 0 10-14 0-26 0-39 0 0-5 0-8 0-12 0-63 0-126 0-188 0-18-4-23-22-23-12 0-23 0-35 0-17 0-22 5-22 23 0 63 0 126 0 189 0 4 0 7 0 11-11 0-21 0-31 0 0-5 0-8 0-12 0-63 0-127 0-190 0-15-5-20-21-20-12 0-24 0-37 0-16 0-21 5-21 21 0 63 0 127 0 190 0 4 0 7 0 11-14 0-26 0-39 0z m543-941c-6 2-13 4-20 7-31 13-49 42-48 77 3 58 6 116 9 175 3 73 7 147 10 220 1 26 3 52 4 78 0 3-2 8-5 10-50 22-77 62-91 112-18 68-16 136 17 199 21 42 52 74 97 88 50 15 94 2 132-31 39-35 60-80 68-131 8-56 2-111-23-162-16-34-41-59-76-75-2-1-5-6-5-9 3-55 5-110 8-166 4-74 7-148 11-221 1-28 3-56 4-84 1-44-23-75-66-85-1-1-2-1-3-2-7 0-15 0-23 0z m-25 326c0 0 0 0 0 0-4-81-8-162-12-244-1-28 20-51 48-51 28-1 50 22 50 50 0 12-1 24-2 37-3 74-7 148-10 222-4 77-8 155-11 233-1 10 3 16 12 18 34 10 57 33 72 64 23 46 27 96 19 146-5 39-21 75-49 104-46 48-112 49-159 1-13-14-24-30-33-47-27-56-27-115-10-174 13-45 38-80 86-95 8-2 11-9 10-18-4-82-7-164-11-246z" horiz-adv-x="1000" />

<glyph glyph-name="profile" unicode="&#xe832;" d="M101-47c266 0 532 0 801 0-6 28-10 56-18 82-38 121-116 206-232 255-7 4-13 3-20-1-164-94-370 7-397 194-21 149 87 288 236 304 145 14 274-86 294-229 10-75-9-143-56-203-3-4-6-8-10-12 8-4 15-8 22-12 137-76 217-192 243-346 3-20 3-40 4-60 1-27-12-40-38-40-93 0-186 0-279 0-193 0-385 0-578 0-29 0-42 12-41 42 4 136 57 250 158 342 16 15 37 14 50-1 13-14 10-35-6-49-75-68-119-153-132-254-1-2-1-4-1-6 0-2 0-3 0-6z m400 769c-111 0-201-90-202-200 0-111 90-201 200-202 111 0 201 90 202 200 0 111-90 201-200 202z" horiz-adv-x="1000" />

<glyph glyph-name="pdam" unicode="&#xe833;" d="M479 835c20 10 44 5 57-12 0-1 1-1 1-1 93-121 180-246 251-382 24-46 45-94 60-144 23-75 14-148-18-218-56-124-152-198-287-216-185-23-352 99-395 275-17 73-8 142 20 210 33 83 77 160 125 236 49 77 102 151 157 223 6 7 23 26 29 29z m22-90c-4-4-6-6-7-8-43-62-87-123-128-185-46-69-87-140-120-216-23-53-37-107-26-166 21-122 127-222 251-232 121-9 214 39 276 144 30 51 44 108 33 167-6 32-18 65-31 96-38 86-88 166-140 244-35 52-71 103-108 156z m4-732c-4 1-10 0-16 2-18 5-30 22-28 40 3 20 17 34 37 35 45 1 81 19 108 56 16 22 23 47 24 75 1 20 14 35 32 37 25 4 45-14 44-39-2-79-37-138-105-179-28-17-60-25-96-27z" horiz-adv-x="1000" />

<glyph glyph-name="pulsa" unicode="&#xe834;" d="M731 842c4-2 7-3 11-4 26-11 41-30 43-58 1-5 1-9 1-13 0-278 0-556-1-835 0-11-1-23-5-34-12-27-34-40-64-40-142 0-284 0-426 0-3 0-6 0-9 0-36 1-64 28-66 63 0 3 0 7 0 10 0 279 0 558 0 836 0 40 15 60 52 73 1 0 1 1 2 1 154 1 308 1 462 1z m8-107c-160 0-319 0-478 0 0-252 0-502 0-753 160 0 319 0 478 0 0 252 0 502 0 753z m-272-810c0-19 15-33 33-33 18 0 33 15 33 33 0 18-15 33-33 33-18 0-33-15-33-33z m33 853c22 0 44 0 65 0 6 0 12 0 13 7 0 8-6 9-13 9-43 0-87 0-130 0-6 0-13 0-13-9 1-7 7-7 13-7 21 0 43 0 65 0z" horiz-adv-x="1000" />

<glyph glyph-name="up" unicode="&#xe835;" d="M475 837c14 13 36 13 50 0l314-314c14-14 14-36 0-50-14-14-36-14-50 0l-254 254v-839c0-19-16-35-35-35s-35 16-35 35v839l-254-254c-14-14-36-14-50 0-14 14-14 36 0 50l314 314z" horiz-adv-x="1000" />

<glyph glyph-name="up-arrow" unicode="&#xe836;" d="M476 600c13 13 35 13 48 0l451-451c14-14 14-35 0-49-13-13-35-13-48 0l-427 427-427-427c-13-13-35-13-48 0-7 7-10 15-10 24 0 10 3 18 10 25l451 451z" horiz-adv-x="1000" />

<glyph glyph-name="train" unicode="&#xe837;" d="M263 129c-13 0-24 0-35 0-31 1-50 20-50 51 0 156 0 312 0 468 0 66 47 112 113 112 23 0 46 0 71 0 0 7 0 14 1 20 2 25 20 43 45 43 61 0 123 0 184 0 25 0 44-18 46-43 1-7 0-13 0-20 5 0 9 0 13 0 27 0 55 1 82-2 49-6 87-51 90-99 0-5 0-10 0-15 0-153 0-307 0-461 0-6 0-12-1-18-6-22-23-35-47-36-11 0-23 0-36 0 2-3 4-5 6-7 68-70 136-141 205-211 3-4 7-7 9-11 4-7 2-14-4-19-6-5-12-5-18-1-4 3-6 6-9 9-76 78-151 155-227 233-5 5-10 7-17 7-121 0-243 0-365 0-8 0-14-2-19-8-75-76-149-153-224-229-3-4-7-8-11-11-6-6-13-6-20-1-6 5-7 14-2 21 2 4 6 7 9 10 68 70 136 140 204 210 2 2 3 4 7 8z m237 32c90 0 181 0 271 0 16 0 21 5 21 19 0 156 0 312 0 468-1 48-34 81-83 81-139 0-278 0-418 0-8 0-17-1-25-3-37-11-58-40-58-82 0-153 0-307 0-460 0-19 5-23 23-23 90 0 179 0 269 0z m107 600c3 24-2 31-25 31-14 0-28 0-42 0-42 0-85 0-127 0-14 0-20-6-20-20 0-4 0-7 0-11 72 0 143 0 214 0z m-106-853c109 0 218 0 327 0 4 0 8 0 11 0 9-1 14-6 14-15 0-8-4-14-13-16-3 0-6 0-9 0-221 0-441 0-662 0-4 0-8 0-11 1-8 2-11 8-11 15 1 8 5 14 13 15 4 0 8 0 12 0 109 0 219 0 329 0z m0 63c-79 0-158 0-237 0-17 0-24 5-24 16-1 11 7 16 23 16 158 0 316 0 474 0 4 0 7 0 11-1 8-1 13-6 13-15 0-8-4-14-13-15-3-1-7-1-11-1-79 0-157 0-236 0z m0 95c-53 0-106 0-159 0-2 0-3 0-5 0-14 0-21 6-21 16 0 10 7 16 21 16 76 0 153 0 229 0 32 0 64 0 96 0 5 0 11 0 14-3 4-4 8-10 7-15 0-5-6-10-10-13-3-2-8-1-12-1-54 0-107 0-160 0z m-1 410c-79 0-158 0-237 0-19 0-24 5-24 24 0 58 0 116 0 174 0 19 5 23 24 23 158 0 316 0 475 0 19 0 23-4 23-24 0-58 0-116 0-175 0-17-4-22-22-22-80 0-159 0-239 0z m-230 32c72 0 143 0 214 0 0 53 0 105 0 157-71 0-143 0-214 0 0-53 0-104 0-157z m460 157c-72 0-143 0-213 0 0-52 0-105 0-157 71 0 142 0 213 0 0 53 0 105 0 157z m-231-488c-69 0-137 0-206 0-19 0-23 4-23 23 0 48 0 95 0 143 0 18 4 23 23 23 138 0 276 0 414 0 19 0 23-4 23-23 0-48 0-96 0-145 0-17-5-21-21-21-70 0-140 0-210 0z m200 32c0 41 0 83 0 125-133 0-265 0-398 0 0-42 0-84 0-125 133 0 265 0 398 0z m-321 15c-26 0-46 21-47 47 0 26 21 48 47 48 25 0 45-22 45-47 1-26-20-48-45-48z m15 47c0 8-7 16-15 16-8 0-15-7-16-15 0-9 7-16 15-16 8 0 15 7 16 15z m230-47c-25 0-45 20-46 47 0 26 21 48 46 48 25 0 46-22 46-47 0-26-20-48-46-48z m15 47c0 8-7 16-15 16-8 0-15-7-15-15 0-9 7-16 15-16 8 0 15 7 15 15z" horiz-adv-x="1000" />

<glyph glyph-name="train-go-on" unicode="&#xe838;" d="M44 187c271 0 542 0 812 0 32 0 59 10 77 36 25 35 19 84-12 112-4 3-10 3-14 3-116 1-231 1-347 0-20 0-38 5-53 18-21 19-31 50-21 76 10 29 30 46 60 50 12 1 24 1 36 1 59 0 118 0 177 0 3 0 7 0 13 0-21 23-42 43-66 58-50 33-103 48-162 48-167 0-334 0-501 0-13 0-30 3-30 19 0 17 14 19 28 19 168 0 335 0 503 0 92 0 171-33 236-98 56-56 111-112 167-167 61-60 48-156-23-197-19-10-39-16-60-16-28 0-55 0-82 0-4 0-8 0-11 0-1-13-2-25-3-38 3 0 7 0 11 0 61 0 122 0 182 0 4 0 7 1 11 0 9-2 15-8 15-18 0-9-4-16-14-19-4-1-8-1-13-1-150 0-300 0-450 0-2 0-4 0-6 0-13 1-22 8-21 20 0 11 8 18 21 18 48 0 95 0 143 0 4 0 7 0 11 0-1 13-2 25-3 37h-422c-1-12-2-24-2-37 3 0 7 0 10 0 36 0 72 0 108 0 15 0 23-7 24-18 0-12-9-20-24-20-103 0-206 0-309 0-15 0-24 8-24 20 1 11 9 18 23 18 27 0 54 0 81 0l-2 38c-4 0-9 0-14 0-21 0-41 1-62 0-14 0-29 3-29 18-1 18 17 20 31 20z m836 189c-12 11-45 45-61 61-6 6-15 9-23 9-43 0-179-1-238-1-18 0-31-9-36-24-7-23 10-45 35-45 104 0 317 0 323 0z m-148-228h-38c1-12-4-25 9-33 5-3 14-4 19-1 14 7 9 21 10 34z m-574 1c-3-20-1-30 9-35 7-4 14-4 20 1 8 6 10 21 6 34h-35z m-116 228c95-1 190-1 285-1 22 0 37 14 37 34 1 21-14 35-37 35-70 0-140 0-210 0-4 0-7 0-11 0-10 1-17 8-18 18 0 11 7 18 18 19 2 1 4 1 6 1 72 0 144 0 216 0 42-1 74-31 74-72 1-41-31-72-74-72-53-1-105 0-158 0-43 0-86 0-129 0-13-1-28 3-28 20 0 15 16 18 29 18z m405-285c0-10-9-19-19-19-10 0-19 9-19 19 0 10 9 19 20 19 10 0 18-9 18-19z" horiz-adv-x="1000" />

<glyph glyph-name="arrive" unicode="&#xe839;" d="M983 227c-2-6-3-11-4-16-8-39-40-63-80-57-53 7-105 17-158 25-45 8-91 16-136 23-3 0-6 0-9 1-6-41-29-61-61-55-30 6-45 33-37 72-9 1-18 3-27 4-1-20-8-37-26-48-12-7-25-9-38-5-29 7-43 35-34 69-20 4-41 7-61 11-58 10-116 20-174 30-31 5-52 23-62 52-20 60-38 120-57 179-5 17 5 29 22 26 25-3 50-7 75-13 6-2 13-8 16-14 13-23 24-48 36-72 3-5 6-8 12-9 56-6 113-12 169-18 1 0 1 1 3 1-1 4-3 9-4 13-21 67-43 135-65 202-6 20 4 33 25 29 35-6 70-12 106-18 9-2 14-8 18-17 37-74 75-147 112-221 3-8 7-11 15-11 54-6 107-11 160-17 39-4 77-8 115-14 21-3 41-9 61-17 43-16 77-43 88-91 0-8 0-16 0-24z m-54 45c0 1 1 2 1 3-6 5-12 10-18 15-29 19-63 29-97 33-66 8-132 15-198 22-15 2-31 3-48 5 8-17 16-31 23-46 4-7 4-15-1-22-6-6-13-8-21-7-57 10-113 21-170 31-10 1-16 6-19 16-4 14-9 28-13 42-2 6-5 9-11 9-64 7-129 14-193 20-11 2-19 6-24 16-12 25-24 49-37 73-1 3-4 7-7 8-10 2-20 3-31 5 1-4 1-6 2-8 15-46 30-91 44-137 6-19 18-29 37-32 100-17 201-34 302-51 103-17 205-35 308-52 48-8 96-16 145-23 26-4 41 13 38 39-11 2-22 4-34 6-21 3-42 6-62 9-11 2-17 11-15 22 1 10 10 16 20 16 5-1 10-2 14-2 22-3 43-7 65-10z m-601 342c2-5 3-8 4-12 26-82 53-165 79-247 5-15 8-17 25-15-6 18-12 36-17 53-2 5-3 10-3 14 1 9 7 15 17 16 9 2 17-3 21-13 8-24 16-48 24-72 1-3 3-7 6-8 18-4 37-7 55-10 1 2 1 2 1 3-46 91-92 183-138 274-1 2-4 5-7 5-21 4-43 8-67 12z m228-416c0 8-5 12-12 12-7-1-11-5-11-12 0-7 4-12 12-12 7 0 11 5 11 12z m-124 22c-1 7-5 11-13 11-7 0-11-5-11-11 0-8 4-12 12-12 7 0 11 4 12 12z m-31-244c-107 0-215 0-322 0-18 0-27 6-28 19 0 13 10 20 29 20 214 0 428 0 642 0 3 0 7 0 10-1 11-1 18-8 18-19 0-10-7-18-19-19-3 0-7 0-11 0-106 0-213 0-319 0z m-65-97c-50 0-101 0-151 0-4 0-8 0-11 1-10 2-17 9-17 18 0 10 6 18 16 19 4 1 8 1 12 1 102 0 203 0 305 0 4 0 8 0 12-1 10-2 16-10 16-18 0-9-7-17-16-19-4-1-8-1-12-1-51 0-102 0-154 0z m-234 758c18-4 36-8 54-12 27-6 54-13 80-19 9-2 16-5 19-15 3-14-9-26-24-23-29 6-57 13-85 19-17 4-34 8-50 12-11 3-17 12-15 22 2 10 10 16 21 16z m763-622c12 0 23 0 34 0 12-1 20-8 20-20 0-11-8-19-20-19-23 0-46 0-69 0-12 0-20 9-20 20 1 10 9 18 20 19 1 0 2 0 2 0 11 0 22 0 33 0 0 0 0 0 0 0z" horiz-adv-x="1000" />

<glyph glyph-name="plane" unicode="&#xe83a;" d="M680 361l-289-260c-1 0-1-2-1-3 9-24 18-47 26-72 12-38 14-78 13-118-1-24-16-39-36-49-11-4-18-1-25 11-27 49-54 97-82 145-1 2-3 5-4 7-1 1-2 1-4 1-13-5-25-11-38-14-24-6-44 3-60 22-16 19-20 42-11 66 3 9 7 17 12 26 0 1 0 3-2 4-13 8-26 16-39 23-36 22-73 43-109 65-15 8-16 16-8 31 11 21 28 31 53 31 61 1 119-11 174-40 0 0 1 0 2-1 1 0 3 0 4 1 85 99 170 198 255 297 1 1 1 3-1 4-2 2-3 3-5 4-97 57-194 114-291 171-16 10-19 16-12 31 15 29 46 47 78 48 100 2 196-16 286-61 22-10 42-23 63-34 3-2 6-4 10-6 1-1 3-1 4 0 17 20 35 40 52 60 24 29 53 52 87 69 48 22 98 27 149 19 27-5 42-19 47-46 1-6 2-12 3-18 5-47-1-93-21-136-14-32-34-59-59-83-22-20-44-39-66-60-2-1-2-2-1-4 4-6 7-13 11-19 43-74 72-154 82-240 5-40 6-80 4-120 0-33-21-55-50-69-9-5-16-1-23 10-20 35-40 71-60 106-36 64-73 129-109 193-2 3-3 5-5 7-1 2-3 3-4 1z m271 384c-1 10-3 26-5 43-1 9-8 16-17 18-12 1-23 3-34 4-70 2-127-24-172-77-97-112-193-225-289-337-53-63-106-125-158-188-30-36-56-74-75-117-7-16-5-31 5-41 11-11 25-12 42-4 54 24 100 62 144 101 162 143 322 287 483 431 48 43 73 96 76 167 0 0 0 0 0 0z m-418-182c1 0 3 0 4 1 28 34 55 67 83 100-1 1-2 1-3 2-104 66-217 97-340 93-15-1-28-5-38-18-1-2 0-4 1-5 98-58 195-115 293-173z m272-92c-32-29-64-56-95-83-2-1-2-3-1-4 57-100 113-200 169-299 1-2 3-2 5-1 12 10 17 23 17 38 4 100-14 195-57 286-10 21-21 40-33 62-1 1-3 2-5 1z m-447-394c-16-12-31-23-47-35-1-1-2-2-1-4 25-44 50-88 75-132 5 1 5 1 10 3 5 58-6 113-32 167-1 2-3 2-5 1z m-294 166c0-4 0-5-1-9 44-26 88-52 132-78 1 0 3 0 4 1 11 17 22 33 33 49 1 1 1 3-1 4 0 0-1 1-1 1-51 26-105 35-161 33-2 0-3 0-5-1z m819 488c18-21 22-51 14-78-2-5-3-9-5-13-4-10-13-14-22-10-8 4-11 13-7 23 2 9 6 18 6 26 0 36-36 58-68 44-2-1-3-2-4-2-10-5-19-2-23 6-4 9-1 18 8 23 32 18 73 12 98-16 1-1 2-2 3-3z" horiz-adv-x="1000" />

<glyph glyph-name="tour" unicode="&#xe83b;" d="M694-87c0-10 0-19 0-28 0-14-6-20-20-20-19 0-38 0-57 0-14 0-19 6-20 19 0 10 0 19 0 29-65 0-128 0-194 0 0-10 1-19 0-28 0-14-6-20-19-20-19 0-39 0-58 0-13 0-19 6-20 19 0 9 0 19 0 27-11 4-23 6-33 10-32 15-47 42-48 77 0 165 0 330 0 495 0 41 24 71 62 81 9 2 18 3 26 3 27 0 53 0 79 0 3 0 7 0 11 0 0 59 0 118 0 178-9 0-18-1-27 0-16 0-21 5-21 21-1 14-1 27 0 41 0 13 6 19 19 19 84 0 168 0 252 0 14 0 20-6 20-20 0-14 0-28 0-42 0-13-6-19-19-19-10-1-19 0-29 0 0-59 0-118 0-178 5 0 10 0 14 0 29 0 58 0 87-1 42-1 77-36 76-85 0-43 0-85 0-128 0-120 0-240 0-361 0-21-4-40-18-57-16-20-36-30-63-32z m49 332c0 81 0 162 0 243 0 37-19 56-56 56-124 0-249 0-374 0-36 0-56-19-56-55 0-163 0-325 0-488 0-36 19-55 55-55 126 0 251 0 376 0 36 0 55 19 55 55 0 81 0 163 0 244z m-179 509c-43 0-85 0-128 0 0-59 0-118 0-177 43 0 86 0 128 0 0 59 0 118 0 177z m-177 34c76 0 151 0 226 0 0 5 0 9 0 14-76 0-150 0-226 0 0-5 0-9 0-14z m-48-890c11 0 21 0 31 0 0 5 0 10 0 14-11 0-21 0-31 0 0-5 0-9 0-14z m322 14c-11 0-21 0-31 0 0-5 0-10 0-14 11 0 21 0 31 0 0 5 0 9 0 14z m-145 332c0-80 0-160 0-240 0-4 0-9-1-13-1-8-7-12-14-13-9 0-15 5-16 13-1 4-1 8-1 12 0 161 0 322 0 484 0 4 0 8 1 12 2 8 7 12 15 12 8 0 14-4 15-12 1-4 1-8 1-12 0-81 0-162 0-243z m-162 0c0 70 0 140 0 210 0 3 0 6 1 9 1 10 7 16 16 16 8 0 15-6 16-15 0-3 0-7 0-10 0-139 0-279 0-418 0-5 0-9-1-13-2-8-7-12-15-12-7-1-13 3-15 10-1 4-1 9-1 14-1 70-1 139-1 209z m292 0c0-69 0-139 0-208 0-4 0-7 0-10-2-9-8-15-16-15-9 0-15 5-16 15-1 3-1 6-1 9 0 140 0 280 0 420 0 17 6 24 16 24 11 1 17-7 17-23 0-71 0-141 0-212z" horiz-adv-x="1000" />

<glyph glyph-name="arrow" unicode="&#xe83c;" d="M738 475c-8 8-20 8-28 0-8-8-8-20 0-28l143-143h-473c-12 0-20-9-20-20 0-11 9-20 20-20h473l-143-144c-8-8-8-20 0-28 8-8 20-8 28 0l177 178c8 7 8 20 0 28l-177 177z m-653-44c-8-8-8-21 0-28l177-178c8-8 21-8 29 0 7 8 7 21 0 29l-144 143h474c11 0 19 9 19 20 0 11-8 20-19 20h-474l144 143c7 8 7 21 0 28-8 8-21 8-29 0l-177-177z" horiz-adv-x="1000" />

<glyph glyph-name="search-1" unicode="&#xe83d;" d="M311 271c16 17 33 33 49 49 1 2 1 7 0 11-10 23-23 46-30 70-27 87-19 172 22 252 43 84 110 140 199 169 73 24 146 22 218-4 89-32 153-92 193-178 30-63 39-130 26-199-24-125-96-213-215-259-94-36-189-29-279 18-5 3-11 6-15 8-18-18-35-35-54-54 3-3 7-5 11-9 7-8 7-15 0-24-2-1-3-2-5-4-72-72-144-145-216-217-40-40-95-47-142-19-60 36-73 119-26 171 17 18 34 34 51 51 57 57 114 114 170 170 18 18 22 18 39 1 1-1 2-2 4-3z m343 535c-170-1-308-139-307-308 1-169 137-306 307-306 171 1 306 138 306 308 0 169-138 306-306 306z m-253-674c-38 38-76 76-114 114 1 1 0 0 0 0-71-71-142-141-212-212-34-35-30-89 5-118 35-28 80-25 112 7 69 68 137 136 205 204 1 2 3 4 4 5z m1 49c16 16 31 31 46 46-22 22-45 44-67 66-15-15-30-30-46-45 22-22 45-45 67-67z m10 318c-1 133 107 241 241 243 133 1 243-109 243-243 0-133-108-241-241-242-134-1-243 108-243 242z m242-210c116 1 210 94 210 210-1 116-95 210-210 210-116 0-211-95-210-210 0-116 94-210 210-210z" horiz-adv-x="1000" />

<glyph glyph-name="train-arrive" unicode="&#xe83e;" d="M987 167c0-15-15-19-29-18-21 1-42 0-62 0-5 0-10 0-14 0l-2-38c27 0 54 0 81 0 14 0 22-7 22-18 1-12-8-20-23-20-103 0-206 0-310 0-14 0-23 8-23 20 1 11 9 18 23 18 37 0 73 0 109 0 4 0 7 0 10 0-1 13-1 25-2 37h-422c-1-12-2-24-3-37 4 0 7 0 11 0 48 0 95 0 143 0 12 0 21-7 21-18 0-12-8-19-21-20-2 0-4 0-6 0-150 0-300 0-450 0-5 0-9 0-14 1-9 3-14 10-13 19 0 10 6 16 15 18 4 1 7 0 11 0 60 0 121 0 182 0 4 0 8 0 11 0-1 13-2 25-3 38-4 0-7 0-11 0-27 0-54 0-82 0-21 0-41 6-60 16-71 41-85 137-23 197 56 55 111 111 167 167 65 65 144 98 236 98 168 0 335 0 503 0 14 0 28-2 28-19 0-16-17-19-30-19-167 0-334 0-501 0-59 0-113-15-162-48-24-15-45-35-66-58 6 0 10 0 13 0 59 0 118 0 177 0 12 0 24 0 36-1 30-4 50-21 60-50 10-26 1-57-21-76-16-13-34-18-53-18-116 1-231 1-347 0-4 0-10-1-14-3-31-28-37-77-12-112 18-26 45-36 76-36 271 0 542 0 813 0 14 0 32-2 31-20z m-544 210c26 0 42 21 35 44-5 15-18 24-36 24-59 0-194 1-237 2-9 0-17-4-23-10-17-16-50-49-61-60 5-1 218-1 322 0z m-165-263c5-3 14-2 19 1 13 8 8 21 9 33h-38c1-13-4-27 10-34z m529 35c-4-13-2-28 6-34 6-5 13-5 20-1 10 5 12 14 9 35h-35z m151 228c-95-1-190-1-285-1-22 0-37 14-37 34-1 21 14 35 37 35 70 0 140 0 210 0 4 0 7 0 11 0 10 1 17 8 18 18 0 11-7 18-18 19-2 1-4 1-6 1-72 0-144 0-215 0-43-1-75-31-75-72 0-41 31-72 74-72 53-1 106 0 158 0 43 0 86 0 129 0 13-1 28 3 28 20 0 15-16 18-29 18z m-405-285c0-10 9-19 19-19 10 0 19 9 19 19 0 10-9 19-20 19-10 0-18-9-18-19z" horiz-adv-x="1000" />

<glyph glyph-name="wifi" unicode="&#xe83f;" d="M31 460c12 28 35 47 56 67 89 85 194 140 316 157 221 33 406-37 555-205 16-18 14-45-5-61-18-15-44-13-61 7-47 55-103 99-169 131-209 101-461 49-612-128-22-26-54-24-69-5-5 6-7 13-11 19 0 6 0 12 0 18z m469 62c130-3 239-52 325-150 21-25 15-58-13-70-17-8-37-4-51 13-32 36-69 66-113 87-135 66-300 34-401-78-3-4-7-8-10-12-17-17-43-18-60-3-18 15-20 41-5 59 57 68 129 114 214 138 37 10 75 16 114 16z m7-172c71-1 136-31 188-90 17-19 15-45-3-61-18-16-44-14-61 4-28 32-63 54-106 60-60 8-112-11-153-56-11-12-23-20-39-19-17 2-29 10-36 26-7 16-4 31 7 44 31 38 70 64 116 80 26 8 53 12 87 12z m-7-171c47 0 86-39 86-86-1-47-39-85-86-85-47 0-86 39-86 86 0 47 39 85 86 85z" horiz-adv-x="1000" />

<glyph glyph-name="wallet" unicode="&#xe840;" d="M992 384h-48v219c0 53-42 96-95 96h-65l-66 119c-10 18-29 29-50 29-9 0-19-2-27-7l-254-141h-284c-52 0-95-43-95-96v-655c0-52 43-95 95-95h746c53 0 95 43 95 95v193h48l0 243 0 0z m-143 277c29 0 53-23 57-51h-72l-28 51h43z m-190 145c9 6 21 2 26-7l105-189h-485l354 196z m247-858c0-31-25-57-57-57h-746c-31 0-57 26-57 57v655c0 32 26 58 57 58h215l-91-51h-112c-10 0-19-9-19-19 0-11 9-19 19-19h43 697 51v-188h-139c-65 0-118-53-118-118v-8c0-65 53-118 118-118h139l0-192 0 0z m48 231h-10-177c-44 0-80 36-80 79v8c0 44 36 80 80 80h177 10v-167z m-129 82c0-23-19-42-42-42-23 0-42 19-42 42s19 42 42 42c23 0 42-19 42-42z" horiz-adv-x="1000" />

<glyph glyph-name="avatar" unicode="&#xe841;" d="M520 830c19-4 37-7 55-13 61-20 102-63 119-125 23-87 20-175-14-259-27-65-74-106-145-117-104-17-186 32-221 132-21 60-25 123-19 186 3 35 11 69 28 100 33 56 83 85 146 94 3 1 6 2 9 2 14 0 28 0 42 0z m134-237c-1 14-2 38-6 61-9 52-35 92-87 111-23 9-48 12-73 11-65-3-114-39-131-100-5-20-8-41-9-62-4-50 0-100 17-148 28-79 88-110 168-96 51 9 81 42 99 87 17 41 21 83 22 136z m-159-723c-106 0-214 19-317 62-22 9-42 20-62 31-7 4-14 12-15 19-14 61-15 122 7 182 14 38 43 61 82 72 55 15 105 39 153 70 5 3 11 7 17 8 13 3 24-4 29-16 5-12 2-25-10-32-23-15-47-30-72-41-31-15-63-28-96-38-36-10-54-32-61-67-6-36-6-72-1-108 0-4 5-9 8-11 55-29 113-48 173-60 160-32 317-22 468 39 17 6 32 14 47 22 3 2 7 6 7 9 4 39 6 78-4 116-7 32-26 51-58 60-60 16-115 43-167 77-14 10-18 25-10 38 9 13 25 17 40 7 51-33 105-58 163-75 50-14 76-52 86-100 10-47 9-95 1-142-3-15-10-25-24-33-65-36-136-59-209-73-56-11-113-16-175-16z" horiz-adv-x="1000" />

<glyph glyph-name="transaction" unicode="&#xe842;" d="M960 464l-173 147v27c0 4-1 8-4 11l-194 193c0 0 0 0 0 0-3 4-7 5-11 5-1 0-2 0-2 0l0 0c-1 0-1 0-2 0h-274c-48 0-87-39-87-87v-149l-172-146c-6-3-9-8-9-14v-492c0-58 48-106 106-106h724c59 0 106 48 106 106v491c0 6-3 12-8 14z m-32-14l-141-119v238l141-119z m-335 343l141-140h-85c-30 0-55 25-55 56v84z m-293 22h262v-106c0-48 39-87 87-87h107v-318l-208-176c-27-23-68-23-96 0l-208 176v456c1 30 26 55 56 55z m-87-246v-238l-141 119 141 119z m-75-684c-16 0-32 5-45 15l216 221c6 7 6 17 0 23-6 6-16 6-22-1l-215-219c-6 11-8 23-8 35v456l155-131 0 0 212-180c40-34 98-34 138 0l368 312v-457c0-12-4-24-9-35l-216 219c-6 7-16 7-22 1-7-6-7-17-1-23l218-221c-13-10-29-16-45-16h-724z m460 525c3-5 9-8 14-8h26c-16-72-82-116-138-116-42 0-87 23-114 61-5 7-15 8-22 3-7-5-9-15-3-22 33-46 86-74 139-74 38 0 79 16 110 43 32 27 53 64 61 105h33c5 0 11 3 13 8 3 5 3 12 0 16l-46 70c-3 4-8 7-13 7-6 0-11-3-14-7l-45-70c-3-4-3-11-1-16z m60 48l16-24h-32l16 24z m-329-73c3-4 8-7 13-7s11 3 14 7l45 70c3 4 4 11 1 16-3 5-8 8-14 8h-26c16 72 82 116 139 116 42 0 86-23 113-61 5-7 15-8 22-3 7 5 9 15 4 22-34 45-87 74-139 74-39 0-79-16-111-43-32-27-53-64-60-105h-33c-6 0-11-3-14-8-3-6-3-12 1-17l45-69z m29 63l-16-25-16 25h32z m142-59c0 0 0 0 0 0 0 0 0 0 0 0-10 1-18 9-18 18 0 9-7 16-16 16-9 0-16-7-16-16 0-21 14-40 34-47v-7c0-8 7-15 16-15 9 0 16 7 16 15v7c23 8 37 31 33 56-4 24-24 41-49 41-10 0-18 8-18 19s8 18 18 18 18-8 18-18c0-9 7-16 16-16 9 0 16 7 16 16 0 21-14 40-34 47v5c0 9-7 16-16 16-9 0-16-7-16-16v-6c-23-7-37-31-33-55 4-24 25-42 49-42 10 0 18-8 18-18 0-9-8-18-18-18z" horiz-adv-x="1000" />

<glyph glyph-name="profile-2" unicode="&#xe843;" d="M500 319c114 0 207 113 207 251 0 77-14 135-43 176-34 50-89 76-164 76-71 0-126-26-161-76-31-42-46-102-46-176 0-138 93-251 207-251z m-141 413c31 43 78 65 141 65 67 0 114-22 144-65 26-37 38-90 38-162 0-124-82-226-182-226-100 0-182 102-182 226 0 69 14 123 41 162z m524-697c-1 31-4 123-46 160-23 20-39 24-58 28-14 3-31 6-56 19-34 17-58 32-73 42-15 10-32 14-47 10-22-6-60-11-103-13-43 2-81 7-103 13-15 4-32 0-48-10-14-10-38-25-72-42-25-13-42-16-56-19-19-4-35-8-58-28-42-37-46-129-47-160-1-37 7-54 8-55l1-3 2-1c2-1 39-31 116-57 16-6 33-11 50-16 64-16 133-24 206-25 129 1 223 27 279 49 62 24 92 48 94 49l2 1 1 2c2 2 10 19 8 56z m-29-41c-8-6-37-25-85-44-2-1-4-2-6-2l-22 85-20-99c-54-16-128-30-221-30-71 0-138 8-200 24-2 0-4 1-6 1l-20 104-24-90c-60 21-95 44-104 51-2 5-5 18-4 41 2 74 15 121 38 141 18 16 29 19 46 22 15 4 34 8 63 22 34 17 59 33 74 43 10 6 20 9 27 7 24-7 64-12 109-14l1 0 0 0c46 2 86 7 110 14 7 2 17-1 26-7 15-10 40-26 75-43 29-15 47-19 62-22 17-4 29-6 47-22 22-20 35-67 38-142 1-23-2-36-4-40z" horiz-adv-x="1000" />

<glyph glyph-name="asuransi-kecelakaan" unicode="&#xe844;" d="M318-130c-2 0-3 0-5 1l-77 29c-2 1-5 3-6 6-1 3-1 6 0 9l25 64c2 8 10 15 19 16l1 0 101 263-33 146c-3 15-8 36-8 37l0 1c-1 4-2 10 0 15l96 251-2 1c-6 3-12 7-14 14-3 6-3 13 0 19l24 64c4 11 14 19 25 23 4 1 7 2 11 2 5 0 10-1 16-3l254-98c9-3 16-9 20-16 6-11 8-23 3-34l-24-64c-3-7-8-12-14-14-3-2-6-3-10-3 0 0 0 0 0 0-3 0-6 1-9 2l-2 1-96-251c-2-5-7-9-10-11l-1-1 0 0c-2-1-7-5-31-22l-122-86-101-264 1-1c6-7 7-16 4-25l-25-64c-1-3-3-5-6-6-1-1-3-1-4-1z m-7 25l21 56c0 0 0 0 0 0l0 1-54 20c0 0 0 0-1 0 0 0 0 0 0 0l-21-55 55-22z m17 82l101 264 1 2 1 1 0 1 2 1 0 1 151 107 4 2c2 2 4 5 6 8l94 246-30 11-75-194c-1-3-3-5-6-6-1-1-3-2-5-2-1 0-2 1-4 1l-154 59c-3 1-5 3-6 6-1 3-1 6 0 9l74 195-30 11-94-246c-1-3-1-6-1-9l1-5 41-181v0l0-3 0-1v0l0-1 0 0v-1l-101-264 30-12z m238 468l70 184-133 51-70-184 133-51z m-113 279l125-48 126-48 18-7 25 66c3 9-1 18-9 21l-129 49-128 49c-2 1-4 1-6 1-6 0-12-4-15-10l-25-66 18-7z m-28-434c0 1-26 108-32 143l0 1c0 1-1 6 3 10 2 2 5 4 8 4 2 0 4-1 5-1l142-55c5-2 8-6 8-11l0 0c0-4-2-7-5-9-29-23-119-85-120-85l-6-5-3 8z m17 30l82 59-104 39 22-98z" horiz-adv-x="1000" />

<glyph glyph-name="asuransi-kesehatan" unicode="&#xe845;" d="M250-120v101c0 21-8 40-23 54l-160 162c-18 18-28 42-28 68v419c0 34 25 62 58 65 1 0 3 0 4 0 32 0 59-24 62-56l28-272 7-1c11-3 21-8 29-16l214-199c28-25 43-61 44-98v-227h-235z m212 22v204c0 32-14 61-36 82l-215 200c-6 7-16 10-26 10-1 0-2 0-3 0l-1 0c-8-1-16-4-23-10-7-8-10-17-10-27 0-10 3-19 10-26l149-136c3-2 4-4 4-8 0-2-1-6-3-8-2-2-5-3-8-3-3 0-6 1-8 3l-150 136 0 0c-11 11-17 26-17 42 0 16 6 31 18 42 5 6 11 10 19 13l7 3-28 272c-2 20-20 36-40 36-1 0-2 0-3-1-21-1-37-19-37-41v-420c0-20 8-38 21-52l160-162c20-18 31-44 31-70v-79h189z m54-22v227c0 37 16 73 43 98l214 199c8 8 18 13 29 15l7 2 28 272c3 32 30 56 62 56 1 0 3 0 5 0 32-3 57-31 57-65v-419c0-26-9-50-27-68l-161-162c-15-14-23-34-23-54v-101h-234z m211 22v80c0 26 12 51 31 69l160 162c13 14 21 33 21 52v420c0 22-16 40-37 42-1 0-2 0-3 0-20 0-37-15-40-36l-27-271 7-3c7-3 13-8 19-13 11-12 17-27 17-43 0-16-6-30-17-41l0-1-150-136c-2-2-5-2-7-2-3 0-6 1-8 3-2 2-3 5-3 8 0 3 1 6 3 8l150 136c6 6 10 16 10 26 0 10-4 19-11 26-6 6-14 10-23 11l0 0c-2 0-3 0-4 0-10 0-19-4-26-10l-215-201c-23-21-36-50-36-81v-205h189z m-227 482c-13 0-26 6-36 15l-179 180c-27 26-42 62-42 100 0 37 15 73 42 100 26 26 62 41 100 41 38 0 73-14 100-41l15-16 16 16c27 27 62 41 100 41 38 0 74-15 101-42 54-55 53-145-2-200l-178-179c-10-9-23-15-37-15z m-115 414c-32 0-62-13-84-35-23-22-35-52-35-84 0-32 12-62 35-84l179-180c6-5 13-8 20-8 8 0 15 3 21 8l178 179c47 46 48 122 2 168-22 23-53 36-85 36-32 0-62-12-84-35l-54-54c-3-2-5-3-8-3s-6 1-8 3c-5 4-5 11 0 16l22 23-15 15c-23 23-53 35-84 35z m315-125c-7 0-12 4-12 10-1 18-8 34-21 47-9 9-20 15-32 19-6 2-9 7-7 13 0 2 1 4 3 6 2 2 5 3 7 3 1 0 2 0 3-1 16-4 30-12 42-24 16-16 26-38 27-61l0-1 0-1c0-2-1-5-3-7l0 0 0 0c-2-2-4-3-7-3l0 0z" horiz-adv-x="1000" />

<glyph glyph-name="report-2" unicode="&#xe846;" d="M978 784l-221 19-4 34c-1 5-5 10-11 10 0 0-1 0-1 0l-203-26 0 1c-1 0-2 0-2 0l-278 23c-1 0-1 0-2 0-5 0-10-5-10-11l-5-50-218-28c-6 0-10-6-9-12l109-873c1-2 1-3 1-4 0-5 0-7 4-11 2-2 6-3 9-3h720c7 0 12 6 12 12v23l32-3c0 0 1 0 1 0 6 0 11 5 11 10l75 877c0 3 0 6-2 8-3 2-5 3-8 4z m-854-675c0-2-2-3-4-3-2-1-3 1-4 3l-78 626 85 11v-637z m143 713l129-11c2 0 4-2 4-4 0-2-2-3-4-4l-132-16 3 35z m-11-59l476 60 8-67h-484c-1 0-3 1-3 3s1 4 3 4z m590-887h-700v857h700l0-857z m46 32l-23 2 0 401v433c0 7-5 12-12 12h-94l-3 24 205-18-73-854z m-678 181c-7 0-12 5-12 11s5 12 12 12h125c6 0 11-5 11-12s-5-11-11-11h-125z m188 0c-6 0-11 5-11 11s5 12 11 12h126c6 0 11-5 11-12s-5-11-11-11h-126z m-188-78c-7 0-12 5-12 11s5 11 12 11h204c6 0 11-5 11-11s-5-11-11-11h-204z m267 0c-7 0-12 5-12 11s5 11 12 11h47c6 0 11-5 11-11 0-6-5-11-11-11h-47z m258 461c0 118-96 214-215 214h-11v-226h226v12z m-203 11v180c97-5 174-83 180-180h-180z m-63-277c119 0 215 96 215 215v11h-203v203h-12c-118 0-214-96-214-214 0-119 96-215 214-215z m-11 406v-203h203c-6-100-90-180-192-180-105 0-192 86-192 192 0 102 81 185 181 191z" horiz-adv-x="1000" />

<glyph glyph-name="asuransi-mobil" unicode="&#xe847;" d="M878 198h-51c-7 0-11-9-6-15l51-50c5-6 14-2 14 6v50c0 5-4 9-8 9z m-705 0h-50c-5 0-9-4-9-9v-50c0-8 9-11 15-6l50 50c5 6 2 15-6 15z m781 282c14 6 21 22 18 37-3 14-17 25-33 25h-24c-19 0-33-14-33-32v-6h-8c-22 54-44 100-66 136-21 36-58 61-100 66-37 5-117 8-208 8s-170-3-208-8c-41-5-79-30-100-66-22-37-44-83-65-136h-8v6c0 18-15 32-33 32h-25c-16 0-30-10-33-25-3-15 4-31 19-37 14-7 29-10 44-10h23c-3-11-14-44-44-83-18-24-28-51-30-79-1-32 3-52 9-81 4-15 7-33 12-57v-148c0-20 16-36 36-36h61c20 0 36 16 36 36v52h613v-52c0-20 16-36 36-36h61c20 0 36 16 36 36v146c4 23 7 42 8 44 9 34 14 66 12 96-1 28-12 56-29 79-31 39-41 72-44 83h22c15 0 30 3 45 10z m-863 6c-13 0-26 3-38 8-7 4-11 12-9 19 2 8 9 14 17 14h25c9 0 17-8 17-17v-23h17c0 0 0-1 0-1h-29z m221-356h377c6 0 11-5 10-11 0-5-4-10-10-10h-377c-6 0-11 4-11 10s5 11 11 11z m-11 32c0 6 5 11 11 11h377c6 0 11-5 10-11 0-6-4-11-10-11h-377c-6 1-11 5-11 11z m611 211c16-20 24-43 25-66 2-28-2-57-12-89l0-1 0-1c-1-4-11-67-16-106h-73c-52 90-113 88-113 88h-446c0 0-60 2-112-88h-73c-7 59-14 95-20 121l0 0c-6 29-10 46-9 76 1 23 10 46 25 66 38 50 48 89 49 95l1 2h0l1 4c25 62 49 114 73 155 17 30 48 50 83 55 37 4 115 7 205 7 90 0 169-3 206-7 34-5 66-25 83-55 26-44 51-98 75-161 1-8 12-47 48-95z m-31 113c0 0 0 1-1 1h13l4 1v22c0 9 8 17 17 17h25c8 0 15-6 17-14 2-7-2-15-9-19-12-5-25-8-38-8h-28z m-382-20c-29 0-58 1-87 1-23 1-47 1-71 2-4 1-8 1-12 1-9 0-17 0-26 1-8 0-17 1-26 1l-2 0c-11 1-22 1-33 2-16 1-33 2-49 3l-40 3 4 9c23 54 45 100 67 136 18 29 50 50 85 54 17 2 44 4 80 6 17 0 36 1 54 1 12 0 24 0 36 0h28c13 0 27 0 40 0 28 0 51-1 70-2 34-1 58-3 74-5 35-4 66-25 85-54 22-35 43-80 67-135l4-10-11-1c-112-8-225-13-337-13z m-324 27l19-1c16-1 33-2 49-3 11-1 22-1 33-2l1 0c9-1 18-1 27-1 8-1 17-1 25-1 4-1 9-1 13-1 23-1 47-1 70-2 137-3 276 1 413 11-21 50-42 92-62 124-16 26-43 43-74 47-15 2-39 4-72 5-20 1-43 2-70 2-14 1-27 1-40 1h-28c-12 0-24-1-36-1-18 0-36 0-53-1-36-2-62-3-79-5-31-4-59-22-74-48-20-33-41-75-62-124z" horiz-adv-x="1000" />

</font>
</defs>
</svg>
